<svg width="81" height="80" xmlns="http://www.w3.org/2000/svg" xmlns:xlink="http://www.w3.org/1999/xlink" xmlns:svgjs="http://svgjs.com/svgjs" viewBox="398 1083 81 80"><svg width="81" height="80" xmlns="http://www.w3.org/2000/svg" xmlns:xlink="http://www.w3.org/1999/xlink" xmlns:svgjs="http://svgjs.com/svgjs" viewBox="0.5 0 80 80" fill="#fff" x="398" y="1083"><svg xmlns="http://www.w3.org/2000/svg" xmlns:xlink="http://www.w3.org/1999/xlink" width="81" height="80" viewBox="0.5 0 80 80"><path paint-order="stroke fill markers" fill-rule="evenodd" d="M20.5 0h40c11.06 0 20 8.94 20 20v40c0 11.06-8.94 20-20 20h-40C9.44 80 .5 71.06.5 60V20c0-11.06 8.94-20 20-20z"/></svg></svg><svg width="37" height="36" xmlns="http://www.w3.org/2000/svg" xmlns:xlink="http://www.w3.org/1999/xlink" xmlns:svgjs="http://svgjs.com/svgjs" viewBox="0.323 0 36.355 36" fill="#1894ff" x="420" y="1105"><svg xmlns="http://www.w3.org/2000/svg" xmlns:xlink="http://www.w3.org/1999/xlink" width="37" height="36" viewBox="0.5 0 36 35.649"><path paint-order="stroke fill markers" fill-rule="evenodd" d="M7.7 35.648v-.003-6.844H4.1a3.604 3.604 0 0 1-3.6-3.6V3.6C.5 1.615 2.115 0 4.1 0h28.8c1.985 0 3.6 1.615 3.6 3.6v21.6c0 1.986-1.615 3.6-3.6 3.6H18.657L7.702 35.648l-.003.001zM4.1 3.6v21.6h7.2v3.952l6.323-3.951H32.9V3.6H4.1z"/></svg></svg><svg width="17" height="14" xmlns="http://www.w3.org/2000/svg" xmlns:xlink="http://www.w3.org/1999/xlink" xmlns:svgjs="http://svgjs.com/svgjs" viewBox="0 0.57 17 12.86" fill="#00de9a" x="430" y="1112"><svg xmlns="http://www.w3.org/2000/svg" width="17" height="14" viewBox="0.027 0.727 16.946 12.819"><path paint-order="stroke fill markers" fill-rule="evenodd" d="M6.7 8.454L14.427.727l2.546 2.546L6.7 13.545.027 6.872l2.546-2.545L6.7 8.454z"/></svg></svg></svg>