<svg width="81" height="80" xmlns="http://www.w3.org/2000/svg" xmlns:xlink="http://www.w3.org/1999/xlink" xmlns:svgjs="http://svgjs.com/svgjs" viewBox="550 1083 81 80"><svg width="81" height="80" xmlns="http://www.w3.org/2000/svg" xmlns:xlink="http://www.w3.org/1999/xlink" xmlns:svgjs="http://svgjs.com/svgjs" viewBox="0.5 0 80 80" fill="#fff" x="550" y="1083"><svg xmlns="http://www.w3.org/2000/svg" xmlns:xlink="http://www.w3.org/1999/xlink" width="81" height="80" viewBox="0.5 0 80 80"><path paint-order="stroke fill markers" fill-rule="evenodd" d="M20.5 0h40c11.06 0 20 8.94 20 20v40c0 11.06-8.94 20-20 20h-40C9.44 80 .5 71.06.5 60V20c0-11.06 8.94-20 20-20z"/></svg></svg><svg width="37" height="36" xmlns="http://www.w3.org/2000/svg" xmlns:xlink="http://www.w3.org/1999/xlink" xmlns:svgjs="http://svgjs.com/svgjs" viewBox="0.5 0 36 36" fill="#1894ff" x="572" y="1105"><svg xmlns="http://www.w3.org/2000/svg" xmlns:xlink="http://www.w3.org/1999/xlink" width="37" height="36" viewBox="0.5 0 36 36"><path paint-order="stroke fill markers" fill-rule="evenodd" d="M7.232 8.182h4.722v3.272H2.136V1.622H5.41v3.706C9.069 1.49 13.242 0 18.499 0c9.942 0 18 8.059 18 18 0 9.94-8.058 18-18 18-9.94 0-18-8.06-18-18h3.274c0 8.134 6.593 14.727 14.727 14.727S33.227 26.134 33.227 18 26.634 3.272 18.5 3.272c-4.649 0-8.109 1.296-11.268 4.91z"/></svg></svg><svg width="10" height="11" xmlns="http://www.w3.org/2000/svg" xmlns:xlink="http://www.w3.org/1999/xlink" xmlns:svgjs="http://svgjs.com/svgjs" viewBox="0.286 0 9.428 11" fill="#00de9a" x="589" y="1112"><svg xmlns="http://www.w3.org/2000/svg" width="10" height="11" viewBox="0.375 0.5 9 10.5"><path paint-order="stroke fill markers" fill-rule="evenodd" d="M3.375 8h6v3h-9V.5h3V8z"/></svg></svg></svg>