<svg width="683" height="619" xmlns="http://www.w3.org/2000/svg" xmlns:xlink="http://www.w3.org/1999/xlink" xmlns:svgjs="http://svgjs.com/svgjs" viewBox="0 111 683 619"><svg width="683" height="619" xmlns="http://www.w3.org/2000/svg" xmlns:xlink="http://www.w3.org/1999/xlink" xmlns:svgjs="http://svgjs.com/svgjs" viewBox="0 85.542 683 447.915" fill="#e6f3ff" opacity=".322" y="111"><svg xmlns="http://www.w3.org/2000/svg" xmlns:xlink="http://www.w3.org/1999/xlink" width="683" height="619" viewBox="0.251 -0.001 943.749 618.916"><path paint-order="stroke fill markers" fill-rule="evenodd" d="M24.635 141.254c61.376-70.487 182.582 20.702 358.203-19.207C534.947 87.465 543.698-4.392 665.23.163c88.789 3.31 185.54 54.578 238.714 143.895 58.64 98.48 37.324 198.738 31.34 223.067C908.57 476.25 829.286 533.812 801.316 553.473c-115.24 80.953-244.555 66.767-306.592 59.992C261.688 587.943 12.202 421.57 1.093 240.687c-1.476-23.68-4.163-67.603 23.542-99.433z"/></svg></svg><svg width="414" height="338" xmlns="http://www.w3.org/2000/svg" xmlns:xlink="http://www.w3.org/1999/xlink" xmlns:svgjs="http://svgjs.com/svgjs" viewBox="139 205 414 338" x="139" y="205"><svg width="105" height="131" xmlns="http://www.w3.org/2000/svg" xmlns:xlink="http://www.w3.org/1999/xlink" xmlns:svgjs="http://svgjs.com/svgjs" viewBox="0 0.063 105 130.874" fill="#e6f3ff" x="348" y="205"><svg xmlns="http://www.w3.org/2000/svg" xmlns:xlink="http://www.w3.org/1999/xlink" width="105" height="131" viewBox="0.699 0.95 103.627 129.162"><path paint-order="stroke fill markers" fill-rule="evenodd" d="M.699.95h103.627v129.162H.7V.95z"/></svg></svg><svg width="309" height="155" xmlns="http://www.w3.org/2000/svg" xmlns:xlink="http://www.w3.org/1999/xlink" xmlns:svgjs="http://svgjs.com/svgjs" viewBox="0 0.463 309 154.074" fill="#e6f3ff" x="244" y="380"><svg xmlns="http://www.w3.org/2000/svg" xmlns:xlink="http://www.w3.org/1999/xlink" width="309" height="155" viewBox="0.932 0.837 307.737 153.444"><path paint-order="stroke fill markers" fill-rule="evenodd" d="M.932.837H308.67v153.445H.932V.837z"/></svg></svg><svg width="309" height="22" xmlns="http://www.w3.org/2000/svg" xmlns:xlink="http://www.w3.org/1999/xlink" xmlns:svgjs="http://svgjs.com/svgjs" viewBox="0 0.87 309 20.26" fill="#1894ff" x="244" y="380"><svg xmlns="http://www.w3.org/2000/svg" xmlns:xlink="http://www.w3.org/1999/xlink" width="309" height="22" viewBox="0.932 0.837 307.737 20.177"><path paint-order="stroke fill markers" fill-rule="evenodd" d="M.932.837H308.67v20.178H.932V.837z"/></svg></svg><svg width="25" height="20" xmlns="http://www.w3.org/2000/svg" xmlns:xlink="http://www.w3.org/1999/xlink" xmlns:svgjs="http://svgjs.com/svgjs" viewBox="0.296 0 24.408 20" fill="#00de9a" opacity=".58" x="471" y="343"><svg xmlns="http://www.w3.org/2000/svg" xmlns:xlink="http://www.w3.org/1999/xlink" width="25" height="20" viewBox="0.029 0.11 24.254 19.874"><path paint-order="stroke fill markers" fill-rule="evenodd" d="M18.578 18.69S3.382 14.613.028.503c0 0 23.476-4.843 24.255 19.481l-5.705-1.294z"/></svg></svg><svg width="17" height="34" xmlns="http://www.w3.org/2000/svg" xmlns:xlink="http://www.w3.org/1999/xlink" xmlns:svgjs="http://svgjs.com/svgjs" viewBox="0.19 0 16.621 34" fill="#00de9a" opacity=".729" x="486" y="327"><svg xmlns="http://www.w3.org/2000/svg" xmlns:xlink="http://www.w3.org/1999/xlink" width="17" height="34" viewBox="0.188 0.765 15.843 32.409"><path paint-order="stroke fill markers" fill-rule="evenodd" d="M5.373 33.174S-5.3 16.474 3.981.764c0 0 17.91 11.272 10.061 32.41H5.373z"/></svg></svg><svg width="23" height="22" xmlns="http://www.w3.org/2000/svg" xmlns:xlink="http://www.w3.org/1999/xlink" xmlns:svgjs="http://svgjs.com/svgjs" viewBox="0 0.314 23 21.372" fill="#00de9a" x="494" y="339"><svg xmlns="http://www.w3.org/2000/svg" xmlns:xlink="http://www.w3.org/1999/xlink" width="23" height="22" viewBox="0.1 0.036 22.747 21.138"><path paint-order="stroke fill markers" fill-rule="evenodd" d="M.1 21.174S5.666 3.459 22.532.036c0 0 3.214 11.48-10.868 21.138H.1z"/></svg></svg><svg width="26" height="22" xmlns="http://www.w3.org/2000/svg" xmlns:xlink="http://www.w3.org/1999/xlink" xmlns:svgjs="http://svgjs.com/svgjs" viewBox="0 0.202 26 21.595" fill="#2361b5" x="483" y="359"><svg xmlns="http://www.w3.org/2000/svg" xmlns:xlink="http://www.w3.org/1999/xlink" width="26" height="22" viewBox="0.093 0.825 25.298 21.012"><path paint-order="stroke fill markers" fill-rule="evenodd" d="M.093.825l3.173 21.013h19.356L25.392.825H.092z"/></svg></svg><svg width="14" height="14" xmlns="http://www.w3.org/2000/svg" xmlns:xlink="http://www.w3.org/1999/xlink" xmlns:svgjs="http://svgjs.com/svgjs" fill="#c2e3ff" x="369" y="222"><svg xmlns="http://www.w3.org/2000/svg" xmlns:xlink="http://www.w3.org/1999/xlink" width="14" height="14" viewBox="0.586 0.551 13.08 13.08"><path paint-order="stroke fill markers" fill-rule="evenodd" d="M7.126 13.631a6.534 6.534 0 0 1-6.54-6.54A6.534 6.534 0 0 1 7.126.55a6.534 6.534 0 0 1 6.54 6.54 6.534 6.534 0 0 1-6.54 6.54z"/></svg></svg><svg width="36" height="72" xmlns="http://www.w3.org/2000/svg" xmlns:xlink="http://www.w3.org/1999/xlink" xmlns:svgjs="http://svgjs.com/svgjs" viewBox="0.558 0 34.884 72" fill="#c2e3ff" x="358" y="239"><svg xmlns="http://www.w3.org/2000/svg" xmlns:xlink="http://www.w3.org/1999/xlink" width="36" height="72" viewBox="0.937 0.488 34.278 70.75"><path paint-order="stroke fill markers" fill-rule="evenodd" d="M30.845 4.883C29.995.123 18.669.486 18.07.5 17.472.513 6.16.124 5.31 4.883 4.6 8.849 1.957 24.796.982 30.696a2.38 2.38 0 0 0 1.81 2.783 2.392 2.392 0 0 0 2.866-1.81l4.69-20.97.876 23.309-.807 34.426a2.783 2.783 0 0 0 2.45 2.783 2.784 2.784 0 0 0 3.116-2.588l1.475-23.656a.612.612 0 1 1 1.225 0l1.489 23.656a2.784 2.784 0 0 0 3.117 2.588 2.783 2.783 0 0 0 2.449-2.783l-.807-34.426.89-23.378 4.662 20.985a2.394 2.394 0 0 0 2.867 1.809 2.394 2.394 0 0 0 1.822-2.784c-1.001-5.844-3.631-21.791-4.327-25.757z"/></svg></svg><svg width="39" height="31" xmlns="http://www.w3.org/2000/svg" xmlns:xlink="http://www.w3.org/1999/xlink" xmlns:svgjs="http://svgjs.com/svgjs" viewBox="0.322 0 38.355 31" fill="#00de9a" x="402" y="220"><svg xmlns="http://www.w3.org/2000/svg" xmlns:xlink="http://www.w3.org/1999/xlink" width="39" height="31" viewBox="0.969 0.602 37.223 30.085"><path paint-order="stroke fill markers" fill-rule="evenodd" d="M5.969.602h27.223c2.765 0 5 2.236 5 5v20.085c0 2.766-2.235 5-5 5H5.97c-2.765 0-5-2.234-5-5V5.602c0-2.764 2.235-5 5-5z"/></svg></svg><svg width="39" height="7" xmlns="http://www.w3.org/2000/svg" xmlns:xlink="http://www.w3.org/1999/xlink" xmlns:svgjs="http://svgjs.com/svgjs" viewBox="0 0.293 39 6.415" fill="#1894ff" opacity=".161" x="402" y="261"><svg xmlns="http://www.w3.org/2000/svg" xmlns:xlink="http://www.w3.org/1999/xlink" width="39" height="7" viewBox="0.969 0.486 37.223 6.123"><path paint-order="stroke fill markers" fill-rule="evenodd" d="M.969.486h37.223V6.61H.97V.486z"/></svg></svg><svg width="39" height="7" xmlns="http://www.w3.org/2000/svg" xmlns:xlink="http://www.w3.org/1999/xlink" xmlns:svgjs="http://svgjs.com/svgjs" viewBox="0 0.292 39 6.416" fill="#1894ff" opacity=".161" x="402" y="273"><svg xmlns="http://www.w3.org/2000/svg" xmlns:xlink="http://www.w3.org/1999/xlink" width="39" height="7" viewBox="0.969 0.467 37.223 6.123"><path paint-order="stroke fill markers" fill-rule="evenodd" d="M.969.467h37.223V6.59H.97V.467z"/></svg></svg><svg width="39" height="7" xmlns="http://www.w3.org/2000/svg" xmlns:xlink="http://www.w3.org/1999/xlink" xmlns:svgjs="http://svgjs.com/svgjs" viewBox="0 0.293 39 6.415" fill="#1894ff" opacity=".161" x="402" y="286"><svg xmlns="http://www.w3.org/2000/svg" xmlns:xlink="http://www.w3.org/1999/xlink" width="39" height="7" viewBox="0.969 0.867 37.223 6.123"><path paint-order="stroke fill markers" fill-rule="evenodd" d="M.969.867h37.223V6.99H.97V.867z"/></svg></svg><svg width="17" height="17" xmlns="http://www.w3.org/2000/svg" xmlns:xlink="http://www.w3.org/1999/xlink" xmlns:svgjs="http://svgjs.com/svgjs" fill="#1894ff" x="428" y="309"><svg xmlns="http://www.w3.org/2000/svg" xmlns:xlink="http://www.w3.org/1999/xlink" width="17" height="17" viewBox="0.684 0.883 15.975 15.975"><path paint-order="stroke fill markers" fill-rule="evenodd" d="M8.672 16.858A7.98 7.98 0 0 1 .684 8.87 7.98 7.98 0 0 1 8.672.883a7.98 7.98 0 0 1 7.987 7.988 7.98 7.98 0 0 1-7.987 7.987z"/></svg></svg><svg width="145" height="155" xmlns="http://www.w3.org/2000/svg" xmlns:xlink="http://www.w3.org/1999/xlink" xmlns:svgjs="http://svgjs.com/svgjs" viewBox="0 0.277 145 154.445" fill="#2361b5" opacity=".078" x="255" y="380"><svg xmlns="http://www.w3.org/2000/svg" xmlns:xlink="http://www.w3.org/1999/xlink" width="145" height="155" viewBox="0.119 0.837 144.073 153.458"><path paint-order="stroke fill markers" fill-rule="evenodd" d="M143.21 3.857s8.35 41.746-23.656 56.594c-32.005 14.847-34.44 54.102-10.325 93.844H.119l6.665-117.5L70.794.837l55.662.697 16.754 2.323z"/></svg></svg><svg width="214" height="314" xmlns="http://www.w3.org/2000/svg" xmlns:xlink="http://www.w3.org/1999/xlink" xmlns:svgjs="http://svgjs.com/svgjs" viewBox="139 229 214 314" x="139" y="229"><svg width="59" height="79" xmlns="http://www.w3.org/2000/svg" xmlns:xlink="http://www.w3.org/1999/xlink" xmlns:svgjs="http://svgjs.com/svgjs" viewBox="0 0.214 59 78.572" fill="#1894ff" x="140" y="284"><svg xmlns="http://www.w3.org/2000/svg" xmlns:xlink="http://www.w3.org/1999/xlink" width="59" height="79" viewBox="0.164 0.66 58.673 78.136"><path paint-order="stroke fill markers" fill-rule="evenodd" d="M58.837.66S4.105 8.363.164 69.809l37.81 8.987L58.837.66z"/></svg></svg><svg width="61" height="80" xmlns="http://www.w3.org/2000/svg" xmlns:xlink="http://www.w3.org/1999/xlink" xmlns:svgjs="http://svgjs.com/svgjs" viewBox="0.018 0 60.965 80" fill="#e6f3ff" x="139" y="284"><svg xmlns="http://www.w3.org/2000/svg" xmlns:xlink="http://www.w3.org/1999/xlink" width="61" height="80" viewBox="0.16 0.561 60.359 79.205"><path paint-order="stroke fill markers" fill-rule="evenodd" d="M60.52.561S5.224 7.443.16 69.948l37.945 9.818L60.519.56z"/></svg></svg><svg width="39" height="64" xmlns="http://www.w3.org/2000/svg" xmlns:xlink="http://www.w3.org/1999/xlink" xmlns:svgjs="http://svgjs.com/svgjs" viewBox="0.311 0 38.378 64" fill="#f4a28c" x="139" y="354"><svg xmlns="http://www.w3.org/2000/svg" xmlns:xlink="http://www.w3.org/1999/xlink" width="39" height="64" viewBox="0.698 0.605 37.493 62.525"><path paint-order="stroke fill markers" fill-rule="evenodd" d="M4.386.605S-12.407 63.014 25.673 63.13L38.19 31.033 31.912 7.179 4.386.605z"/></svg></svg><svg width="39" height="64" xmlns="http://www.w3.org/2000/svg" xmlns:xlink="http://www.w3.org/1999/xlink" xmlns:svgjs="http://svgjs.com/svgjs" viewBox="0.311 0 38.378 64" fill="#ce8172" opacity=".31" x="139" y="354"><svg xmlns="http://www.w3.org/2000/svg" xmlns:xlink="http://www.w3.org/1999/xlink" width="39" height="64" viewBox="0.698 0.605 37.493 62.525"><path paint-order="stroke fill markers" fill-rule="evenodd" d="M4.386.605S-12.407 63.014 25.673 63.13L38.19 31.033 31.912 7.179 4.386.605z"/></svg></svg><svg width="20" height="14" xmlns="http://www.w3.org/2000/svg" xmlns:xlink="http://www.w3.org/1999/xlink" xmlns:svgjs="http://svgjs.com/svgjs" viewBox="0 0.237 20 13.526" fill="#2361b5" x="201" y="529"><svg xmlns="http://www.w3.org/2000/svg" xmlns:xlink="http://www.w3.org/1999/xlink" width="20" height="14" viewBox="0.108 0.738 19.041 12.877"><path paint-order="stroke fill markers" fill-rule="evenodd" d="M11.767.738S9.777 6.335 4.73 6.772c-5.046.437-6.42 5.393-1.81 6.664 4.609 1.27 16.228-4.61 16.228-4.61l-.347-7.28-7.035-.808z"/></svg></svg><svg width="20" height="14" xmlns="http://www.w3.org/2000/svg" xmlns:xlink="http://www.w3.org/1999/xlink" xmlns:svgjs="http://svgjs.com/svgjs" viewBox="0 0.232 20 13.537" fill="#2361b5" x="279" y="528"><svg xmlns="http://www.w3.org/2000/svg" xmlns:xlink="http://www.w3.org/1999/xlink" width="20" height="14" viewBox="0.335 0.878 19.026 12.878"><path paint-order="stroke fill markers" fill-rule="evenodd" d="M7.73.878s1.99 5.598 7.036 6.047c5.046.45 6.355 5.38 1.81 6.65C12.031 14.847.336 8.98.336 8.98l.359-7.292L7.73.877z"/></svg></svg><svg width="23" height="27" xmlns="http://www.w3.org/2000/svg" xmlns:xlink="http://www.w3.org/1999/xlink" xmlns:svgjs="http://svgjs.com/svgjs" viewBox="0 0.1 23 26.8" fill="#f4a28c" x="227" y="236"><svg xmlns="http://www.w3.org/2000/svg" xmlns:xlink="http://www.w3.org/1999/xlink" width="23" height="27" viewBox="0.596 0.427 22.403 26.104"><path paint-order="stroke fill markers" fill-rule="evenodd" d="M22.51 15.51l-3.17-3.12c-.54-3.338-1.194-5.854-1.194-5.854C16.99.874 8.093-1.874 3.458 2.8a8.487 8.487 0 0 0-2.22 9.59l4.159 7.704c1.861 4.75 6.162 6.11 9.398 6.419a4.75 4.75 0 0 0 5.135-4.34c.072-1.12.072-2.243 0-3.363l1.978-.732a1.515 1.515 0 0 0 .603-2.568z"/></svg></svg><svg width="18" height="32" xmlns="http://www.w3.org/2000/svg" xmlns:xlink="http://www.w3.org/1999/xlink" xmlns:svgjs="http://svgjs.com/svgjs" viewBox="0.191 0 17.618 32" fill="#f4a28c" x="226" y="251"><svg xmlns="http://www.w3.org/2000/svg" xmlns:xlink="http://www.w3.org/1999/xlink" width="18" height="32" viewBox="0.183 0.831 17.127 31.108"><path paint-order="stroke fill markers" fill-rule="evenodd" d="M2.764.831L.184 31.734l17.126.206L12.43 9.934 2.764.83z"/></svg></svg><svg width="23" height="22" xmlns="http://www.w3.org/2000/svg" xmlns:xlink="http://www.w3.org/1999/xlink" xmlns:svgjs="http://svgjs.com/svgjs" viewBox="0.084 0 22.833 22" x="222" y="235"><svg xmlns="http://www.w3.org/2000/svg" xmlns:xlink="http://www.w3.org/1999/xlink" width="23" height="22" viewBox="0.858 0.192 22.095 21.29"><path paint-order="stroke fill markers" fill-rule="evenodd" d="M.858 8.113c3.197 1.618 3.646 5.573 4.48 8.988l1.015 4.25a6.42 6.42 0 0 0 7.228-3.852 7.6 7.6 0 0 0 .424-5.136 2.734 2.734 0 0 1 2.4-3.492l1.413-.141a12.22 12.22 0 0 0 5.135-1.862l-.5-6.676L.857 8.113"/></svg></svg><svg width="6" height="7" xmlns="http://www.w3.org/2000/svg" xmlns:xlink="http://www.w3.org/1999/xlink" xmlns:svgjs="http://svgjs.com/svgjs" viewBox="0.12 0 5.76 7" fill="#f4a28c" x="231" y="249"><svg xmlns="http://www.w3.org/2000/svg" xmlns:xlink="http://www.w3.org/1999/xlink" width="6" height="7" viewBox="0.694 0.216 4.837 5.878"><path paint-order="stroke fill markers" fill-rule="evenodd" d="M5.531 3.165S4.863-.417 2.206.315C-.452 1.046.498 6.22 4.247 6.092l1.284-2.927z"/></svg></svg><svg width="8" height="10" xmlns="http://www.w3.org/2000/svg" xmlns:xlink="http://www.w3.org/1999/xlink" xmlns:svgjs="http://svgjs.com/svgjs" viewBox="0.102 0 7.797 10" fill="#ce8172" opacity=".31" x="233" y="258"><svg xmlns="http://www.w3.org/2000/svg" xmlns:xlink="http://www.w3.org/1999/xlink" width="8" height="10" viewBox="0.029 0.815 7.007 8.987"><path paint-order="stroke fill markers" fill-rule="evenodd" d="M5.637 3.563A11.548 11.548 0 0 1 .09.815s-1.194 6.69 6.946 8.988l-1.4-6.24z"/></svg></svg><svg width="137" height="151" xmlns="http://www.w3.org/2000/svg" xmlns:xlink="http://www.w3.org/1999/xlink" xmlns:svgjs="http://svgjs.com/svgjs" viewBox="0.048 0 136.905 151" fill="#e6f3ff" x="170" y="279"><svg xmlns="http://www.w3.org/2000/svg" xmlns:xlink="http://www.w3.org/1999/xlink" width="137" height="151" viewBox="0.608 0.476 135.793 149.774"><path paint-order="stroke fill markers" fill-rule="evenodd" d="M31.404 5.056s44.37-13.326 89.589 5.482C166.21 29.347 97.51 150.25 97.51 150.25H28.233S-35.987 18.665 31.404 5.056z"/></svg></svg><svg width="18" height="15" xmlns="http://www.w3.org/2000/svg" xmlns:xlink="http://www.w3.org/1999/xlink" xmlns:svgjs="http://svgjs.com/svgjs" viewBox="0 0.379 18 14.242" fill="#1894ff" x="233" y="249"><svg xmlns="http://www.w3.org/2000/svg" xmlns:xlink="http://www.w3.org/1999/xlink" width="18" height="15" viewBox="0.206 0.572 17.217 13.622"><path paint-order="stroke fill markers" fill-rule="evenodd" d="M9.411 2.831h8.011l-3.389 11.362L.206 6.49V5.476l4.288 2.272A1.643 1.643 0 0 0 6.921 6.26a4.3 4.3 0 0 0-2.44-3.684l-1.284-.643L2.12.572l2.709 1.283c1.442.644 3.004.976 4.583.976z"/></svg></svg><svg width="61" height="116" xmlns="http://www.w3.org/2000/svg" xmlns:xlink="http://www.w3.org/1999/xlink" xmlns:svgjs="http://svgjs.com/svgjs" viewBox="0.04 0 60.921 116" fill="#2361b5" opacity=".078" x="174" y="314"><svg xmlns="http://www.w3.org/2000/svg" xmlns:xlink="http://www.w3.org/1999/xlink" width="61" height="116" viewBox="0.058 0.253 60.393 114.996"><path paint-order="stroke fill markers" fill-rule="evenodd" d="M35.621.253h16.447l7.844 47.914H38.625s-8.884 39.454 21.826 67.082H24.233S5.283 69.197 1.727 52.776L.057 17.2 35.622.253z"/></svg></svg><svg width="17" height="18" xmlns="http://www.w3.org/2000/svg" xmlns:xlink="http://www.w3.org/1999/xlink" xmlns:svgjs="http://svgjs.com/svgjs" viewBox="0 0.329 17 17.342" fill="#f4a28c" x="226" y="278"><svg xmlns="http://www.w3.org/2000/svg" xmlns:xlink="http://www.w3.org/1999/xlink" width="17" height="18" viewBox="0.414 0.878 16.138 16.463"><path paint-order="stroke fill markers" fill-rule="evenodd" d="M.414 1.935l8.332 15.407L16.552 1.55a38.604 38.604 0 0 0-16.138.385z"/></svg></svg><svg width="47" height="48" xmlns="http://www.w3.org/2000/svg" xmlns:xlink="http://www.w3.org/1999/xlink" xmlns:svgjs="http://svgjs.com/svgjs" viewBox="0 0.267 47 47.467" fill="#1894ff" x="166" y="302"><svg xmlns="http://www.w3.org/2000/svg" xmlns:xlink="http://www.w3.org/1999/xlink" width="47" height="48" viewBox="0.046 0.082 46.579 47.041"><path paint-order="stroke fill markers" fill-rule="evenodd" d="M.046.082H40.63l5.995 47.041H6.62L.046.082z"/></svg></svg><svg width="38" height="22" xmlns="http://www.w3.org/2000/svg" xmlns:xlink="http://www.w3.org/1999/xlink" xmlns:svgjs="http://svgjs.com/svgjs" viewBox="0 0.541 38 20.918" opacity=".078" x="175" y="328"><svg xmlns="http://www.w3.org/2000/svg" xmlns:xlink="http://www.w3.org/1999/xlink" width="38" height="22" viewBox="0.907 0.889 36.757 20.234"><path paint-order="stroke fill markers" fill-rule="evenodd" d="M3.95.889a12.377 12.377 0 0 1 9.718 8.987c2.465 8.178 23.007 3.454 23.007 3.454l.989 7.793-36.757-.116L3.949.89z"/></svg></svg><svg width="18" height="8" xmlns="http://www.w3.org/2000/svg" xmlns:xlink="http://www.w3.org/1999/xlink" xmlns:svgjs="http://svgjs.com/svgjs" viewBox="0 0.163 18 7.675" fill="#2361b5" x="177" y="298"><svg xmlns="http://www.w3.org/2000/svg" xmlns:xlink="http://www.w3.org/1999/xlink" width="18" height="8" viewBox="0.55 0.526 16.652 7.1"><path paint-order="stroke fill markers" fill-rule="evenodd" d="M.55.526l1.797 7.1h14.855L15.84.525H.55z"/></svg></svg><svg width="14" height="24" xmlns="http://www.w3.org/2000/svg" xmlns:xlink="http://www.w3.org/1999/xlink" xmlns:svgjs="http://svgjs.com/svgjs" viewBox="0 0.106 14 23.788" fill="#f4a28c" x="167" y="326"><svg xmlns="http://www.w3.org/2000/svg" xmlns:xlink="http://www.w3.org/1999/xlink" width="14" height="24" viewBox="0.533 0.827 13.053 22.18"><path paint-order="stroke fill markers" fill-rule="evenodd" d="M2.603 17.782s-6.201-11.94 2.863-16.24C14.53-2.76 16.494 13.377 8.868 23.006l-6.265-5.225z"/></svg></svg><svg width="30" height="24" xmlns="http://www.w3.org/2000/svg" xmlns:xlink="http://www.w3.org/1999/xlink" xmlns:svgjs="http://svgjs.com/svgjs" viewBox="0 0.203 30 23.593" fill="#2361b5" x="218" y="229"><svg xmlns="http://www.w3.org/2000/svg" xmlns:xlink="http://www.w3.org/1999/xlink" width="30" height="24" viewBox="0.252 0.478 28.848 22.687"><path paint-order="stroke fill markers" fill-rule="evenodd" d="M9.339 23.165s5.559-7.074 17.974-8.807c0 0 4.827-6.985-1.387-11.902C19.712-2.46 4.948 2.533 1.533 9.3c-1.913 3.8-3.21 13.943 7.806 13.866z"/></svg></svg><svg width="27" height="77" xmlns="http://www.w3.org/2000/svg" xmlns:xlink="http://www.w3.org/1999/xlink" xmlns:svgjs="http://svgjs.com/svgjs" viewBox="0.08 0 26.839 77" fill="#f4a28c" x="151" y="341"><svg xmlns="http://www.w3.org/2000/svg" xmlns:xlink="http://www.w3.org/1999/xlink" width="27" height="77" viewBox="0.411 0.369 26.507 76.045"><path paint-order="stroke fill markers" fill-rule="evenodd" d="M18.693.369s-33.24 68.045-10.079 75.53C31.775 83.384 26.37 6.788 26.37 6.788L18.693.368z"/></svg></svg><svg width="86" height="151" xmlns="http://www.w3.org/2000/svg" xmlns:xlink="http://www.w3.org/1999/xlink" xmlns:svgjs="http://svgjs.com/svgjs" viewBox="0.104 0 85.793 151" fill="#f4a28c" x="267" y="291"><svg xmlns="http://www.w3.org/2000/svg" xmlns:xlink="http://www.w3.org/1999/xlink" width="86" height="151" viewBox="0.339 0.958 84.707 149.09"><path paint-order="stroke fill markers" fill-rule="evenodd" d="M1.897 13.02C8.086.182 25.007-2.964 35.894 6.28 51.173 19.324 79.315 55.53 84.45 90.13c8.14 54.783-69.752 59.918-69.752 59.918l-2.568-11.979s51.098-12.838 36.462-48.786C36.883 60.523-8.592 34.769 1.897 13.02z"/></svg></svg><svg width="76" height="77" xmlns="http://www.w3.org/2000/svg" xmlns:xlink="http://www.w3.org/1999/xlink" xmlns:svgjs="http://svgjs.com/svgjs" viewBox="0 0.081 76 76.838" fill="#1894ff" x="263" y="290"><svg xmlns="http://www.w3.org/2000/svg" xmlns:xlink="http://www.w3.org/1999/xlink" width="76" height="77" viewBox="0.159 0.053 75.62 76.454"><path paint-order="stroke fill markers" fill-rule="evenodd" d="M5.64 9.822S19.122-6.65 36.249 3.185c17.127 9.834 39.53 46.013 39.53 46.013L37.957 76.507S-17.033 29.504 5.64 9.822z"/></svg></svg><svg width="80" height="80" xmlns="http://www.w3.org/2000/svg" xmlns:xlink="http://www.w3.org/1999/xlink" xmlns:svgjs="http://svgjs.com/svgjs" viewBox="0.436 0 79.128 80" fill="#e6f3ff" x="261" y="288"><svg xmlns="http://www.w3.org/2000/svg" xmlns:xlink="http://www.w3.org/1999/xlink" width="80" height="80" viewBox="0.915 0.796 78.106 78.967"><path paint-order="stroke fill markers" fill-rule="evenodd" d="M6.578 10.886S20.502-6.127 38.192 4.031c17.69 10.157 40.83 47.526 40.83 47.526L39.955 79.764S-16.84 31.216 6.578 10.886z"/></svg></svg><svg width="93" height="103" xmlns="http://www.w3.org/2000/svg" xmlns:xlink="http://www.w3.org/1999/xlink" xmlns:svgjs="http://svgjs.com/svgjs" viewBox="0.077 0 92.846 103" fill="#e6f3ff" x="198" y="429"><svg xmlns="http://www.w3.org/2000/svg" xmlns:xlink="http://www.w3.org/1999/xlink" width="93" height="103" viewBox="0.233 0.249 92.028 102.093"><path paint-order="stroke fill markers" fill-rule="evenodd" d="M69.472.25H.233l11.568 102.093h13.057L36.36 19.636l43.061 82.707h12.84L69.471.249z"/></svg></svg><svg width="21" height="18" xmlns="http://www.w3.org/2000/svg" xmlns:xlink="http://www.w3.org/1999/xlink" xmlns:svgjs="http://svgjs.com/svgjs" viewBox="0.365 0 20.27 18" fill="#f4a28c" x="261" y="429"><svg xmlns="http://www.w3.org/2000/svg" xmlns:xlink="http://www.w3.org/1999/xlink" width="21" height="18" viewBox="0.916 0.069 19.782 17.567"><path paint-order="stroke fill markers" fill-rule="evenodd" d="M18.13.07S-4.556 5.127 2.158 14.114c6.715 8.987 18.54-2.067 18.54-2.067L18.13.069z"/></svg></svg><svg width="10" height="25" xmlns="http://www.w3.org/2000/svg" xmlns:xlink="http://www.w3.org/1999/xlink" xmlns:svgjs="http://svgjs.com/svgjs" viewBox="0.147 0 9.706 25" fill="#1894ff" x="217" y="278"><svg xmlns="http://www.w3.org/2000/svg" xmlns:xlink="http://www.w3.org/1999/xlink" width="10" height="25" viewBox="0.325 0.279 9.281 23.906"><path paint-order="stroke fill markers" fill-rule="evenodd" d="M.62 24.185C.504 23.427-1.948 5.555 9.607.279v1.643C-.998 6.788 1.903 23.748 1.903 23.98l-1.283.206z"/></svg></svg><svg width="10" height="40" xmlns="http://www.w3.org/2000/svg" xmlns:xlink="http://www.w3.org/1999/xlink" xmlns:svgjs="http://svgjs.com/svgjs" viewBox="0.423 0 9.154 40" fill="#1894ff" x="242" y="278"><svg xmlns="http://www.w3.org/2000/svg" xmlns:xlink="http://www.w3.org/1999/xlink" width="10" height="40" viewBox="0.283 0.087 9.07 39.633"><path paint-order="stroke fill markers" fill-rule="evenodd" d="M7.37 39.72l-1.284-.27C12.788 6.827.41 1.55.283 1.499V.087c.59.204 14.02 5.918 7.087 39.632z"/></svg></svg><svg width="21" height="20" xmlns="http://www.w3.org/2000/svg" xmlns:xlink="http://www.w3.org/1999/xlink" xmlns:svgjs="http://svgjs.com/svgjs" viewBox="0 0.033 21 19.935" fill="#1894ff" x="237" y="317"><svg xmlns="http://www.w3.org/2000/svg" xmlns:xlink="http://www.w3.org/1999/xlink" width="21" height="20" viewBox="0.536 0.342 19.994 18.98"><path paint-order="stroke fill markers" fill-rule="evenodd" d="M19.74 19.323l-2.504-.616c0-.09 2.13-8.988-1.066-13.404a5.74 5.74 0 0 0-4.52-2.337A6.01 6.01 0 0 0 6.773 4.57C2.741 8.423 3.113 17.692 3.113 17.782l-2.568.116c0-.424-.423-10.438 4.43-15.163A8.602 8.602 0 0 1 11.908.398a8.307 8.307 0 0 1 6.419 3.39c3.851 5.354 1.502 15.111 1.412 15.535z"/></svg></svg><svg width="6" height="5" xmlns="http://www.w3.org/2000/svg" xmlns:xlink="http://www.w3.org/1999/xlink" xmlns:svgjs="http://svgjs.com/svgjs" viewBox="0.5 0 5 5" fill="#2361b5" x="246" y="316"><svg xmlns="http://www.w3.org/2000/svg" xmlns:xlink="http://www.w3.org/1999/xlink" width="6" height="5" viewBox="0.648 0.115 4.827 4.827"><path paint-order="stroke fill markers" fill-rule="evenodd" d="M3.062 4.942A2.412 2.412 0 0 1 .648 2.528 2.411 2.411 0 0 1 3.062.115a2.411 2.411 0 0 1 2.413 2.413 2.412 2.412 0 0 1-2.413 2.414z"/></svg></svg><svg width="11" height="10" xmlns="http://www.w3.org/2000/svg" xmlns:xlink="http://www.w3.org/1999/xlink" xmlns:svgjs="http://svgjs.com/svgjs" viewBox="0.5 0 10 10" fill="#1894ff" x="213" y="298"><svg xmlns="http://www.w3.org/2000/svg" xmlns:xlink="http://www.w3.org/1999/xlink" width="11" height="10" viewBox="0.845 0.23 9.295 9.295"><path paint-order="stroke fill markers" fill-rule="evenodd" d="M5.493 9.526A4.644 4.644 0 0 1 .845 4.878 4.643 4.643 0 0 1 5.493.23a4.643 4.643 0 0 1 4.647 4.648 4.644 4.644 0 0 1-4.647 4.648z"/></svg></svg><svg width="7" height="6" xmlns="http://www.w3.org/2000/svg" xmlns:xlink="http://www.w3.org/1999/xlink" xmlns:svgjs="http://svgjs.com/svgjs" viewBox="0.5 0 6 6" fill="#2361b5" x="215" y="300"><svg xmlns="http://www.w3.org/2000/svg" xmlns:xlink="http://www.w3.org/1999/xlink" width="7" height="6" viewBox="0.848 0.233 5.29 5.29"><path paint-order="stroke fill markers" fill-rule="evenodd" d="M3.493 5.523A2.642 2.642 0 0 1 .848 2.878 2.642 2.642 0 0 1 3.493.233a2.642 2.642 0 0 1 2.644 2.645 2.642 2.642 0 0 1-2.644 2.645z"/></svg></svg><svg width="6" height="16" xmlns="http://www.w3.org/2000/svg" xmlns:xlink="http://www.w3.org/1999/xlink" xmlns:svgjs="http://svgjs.com/svgjs" viewBox="0.351 0 5.298 16" fill="#1894ff" x="238" y="332"><svg xmlns="http://www.w3.org/2000/svg" xmlns:xlink="http://www.w3.org/1999/xlink" width="6" height="16" viewBox="0.059 0.009 5.199 15.702"><path paint-order="stroke fill markers" fill-rule="evenodd" d="M4.732 15.71C-.724 12.99.085.536.122.01l1.285.09c0 .128-.796 12.12 3.852 14.47l-.527 1.142z"/></svg></svg><svg width="5" height="5" xmlns="http://www.w3.org/2000/svg" xmlns:xlink="http://www.w3.org/1999/xlink" xmlns:svgjs="http://svgjs.com/svgjs" fill="#2361b5" x="241" y="344"><svg xmlns="http://www.w3.org/2000/svg" xmlns:xlink="http://www.w3.org/1999/xlink" width="5" height="5" viewBox="0.32 0.681 4.314 4.314"><path paint-order="stroke fill markers" fill-rule="evenodd" d="M2.477 4.995A2.155 2.155 0 0 1 .32 2.838C.32 1.645 1.284.68 2.477.68s2.157.964 2.157 2.157a2.155 2.155 0 0 1-2.157 2.157z"/></svg></svg><svg width="8" height="16" xmlns="http://www.w3.org/2000/svg" xmlns:xlink="http://www.w3.org/1999/xlink" xmlns:svgjs="http://svgjs.com/svgjs" viewBox="0.147 0 7.705 16" fill="#1894ff" x="249" y="332"><svg xmlns="http://www.w3.org/2000/svg" xmlns:xlink="http://www.w3.org/1999/xlink" width="8" height="16" viewBox="0.37 0.51 7.215 14.983"><path paint-order="stroke fill markers" fill-rule="evenodd" d="M.78 15.492l-.41-1.206C5.35 12.63 6.288.638 6.3.51l1.284.102C7.534 1.126 6.571 13.58.78 15.492z"/></svg></svg><svg width="5" height="5" xmlns="http://www.w3.org/2000/svg" xmlns:xlink="http://www.w3.org/1999/xlink" xmlns:svgjs="http://svgjs.com/svgjs" fill="#2361b5" x="247" y="344"><svg xmlns="http://www.w3.org/2000/svg" width="5" height="5" viewBox="0.02 0.373 4.314 4.314"><path paint-order="stroke fill markers" fill-rule="evenodd" d="M2.177 4.686A2.155 2.155 0 0 1 .02 2.53C.02 1.337.984.373 2.177.373s2.157.964 2.157 2.156a2.155 2.155 0 0 1-2.157 2.157z"/></svg></svg></svg></svg></svg>