<svg width="121" height="87" xmlns="http://www.w3.org/2000/svg" xmlns:xlink="http://www.w3.org/1999/xlink" xmlns:svgjs="http://svgjs.com/svgjs" viewBox="281 92 121 87"><svg width="121" height="12" xmlns="http://www.w3.org/2000/svg" xmlns:xlink="http://www.w3.org/1999/xlink" xmlns:svgjs="http://svgjs.com/svgjs" viewBox="0 0.684 121 10.632" fill="#e6f3ff" opacity=".451" x="281" y="167"><svg xmlns="http://www.w3.org/2000/svg" xmlns:xlink="http://www.w3.org/1999/xlink" width="121" height="12" viewBox="0.262 0.932 120.476 10.585"><path paint-order="stroke fill markers" fill-rule="evenodd" d="M60.5 11.518C27.188 11.518.262 9.152.262 6.225S27.188.932 60.5.932c33.311 0 60.238 2.366 60.238 5.293S93.81 11.518 60.5 11.518z"/></svg></svg><svg width="45" height="81" xmlns="http://www.w3.org/2000/svg" xmlns:xlink="http://www.w3.org/1999/xlink" xmlns:svgjs="http://svgjs.com/svgjs" viewBox="0 0.147 45 80.707" fill="#1894ff" x="321" y="92"><svg xmlns="http://www.w3.org/2000/svg" xmlns:xlink="http://www.w3.org/1999/xlink" width="45" height="81" viewBox="0.505 1 44.449 79.719"><path paint-order="stroke fill markers" fill-rule="evenodd" d="M.505 1h44.449v79.718H.504V1z"/></svg></svg><svg width="37" height="57" xmlns="http://www.w3.org/2000/svg" xmlns:xlink="http://www.w3.org/1999/xlink" xmlns:svgjs="http://svgjs.com/svgjs" viewBox="0 0.291 37 56.419" fill="#fff" x="325" y="102"><svg xmlns="http://www.w3.org/2000/svg" xmlns:xlink="http://www.w3.org/1999/xlink" width="37" height="57" viewBox="0.185 0.09 36.792 56.102"><path paint-order="stroke fill markers" fill-rule="evenodd" d="M.185.09h36.793v56.102H.185V.09z"/></svg></svg><svg width="31" height="30" xmlns="http://www.w3.org/2000/svg" xmlns:xlink="http://www.w3.org/1999/xlink" xmlns:svgjs="http://svgjs.com/svgjs" viewBox="0.07 0 30.861 30" fill="#e6f3ff" x="284" y="135"><svg xmlns="http://www.w3.org/2000/svg" xmlns:xlink="http://www.w3.org/1999/xlink" width="31" height="30" viewBox="0.907 0.478 29.987 29.151"><path paint-order="stroke fill markers" fill-rule="evenodd" d="M30.401.478s-10.41.779-12.81 11.851c-2.398 11.073-6.515 16.455-14.857 8.915l-1.827 2.4s11.77 14.215 22.285-1.169C33.708 7.091 30.402.478 30.402.478z"/></svg></svg><svg width="31" height="30" xmlns="http://www.w3.org/2000/svg" xmlns:xlink="http://www.w3.org/1999/xlink" xmlns:svgjs="http://svgjs.com/svgjs" viewBox="0.07 0 30.861 30" fill="#e6f3ff" opacity=".459" x="284" y="135"><svg xmlns="http://www.w3.org/2000/svg" xmlns:xlink="http://www.w3.org/1999/xlink" width="31" height="30" viewBox="0.907 0.478 29.987 29.151"><path paint-order="stroke fill markers" fill-rule="evenodd" d="M30.401.478s-10.41.779-12.81 11.851c-2.398 11.073-6.515 16.455-14.857 8.915l-1.827 2.4s11.77 14.215 22.285-1.169C33.708 7.091 30.402.478 30.402.478z"/></svg></svg><svg width="25" height="42" xmlns="http://www.w3.org/2000/svg" xmlns:xlink="http://www.w3.org/1999/xlink" xmlns:svgjs="http://svgjs.com/svgjs" viewBox="0.045 0 24.91 42" opacity=".078" x="321" y="131"><svg xmlns="http://www.w3.org/2000/svg" xmlns:xlink="http://www.w3.org/1999/xlink" width="25" height="42" viewBox="0.505 0.561 24.411 41.157"><path paint-order="stroke fill markers" fill-rule="evenodd" d="M4.209.583s4.44-.54 3.894 3.693c-.545 4.233-1.558 7.434 2.727 7.972 4.284.537 15.399 10.169 13.958 18.8-1.441 8.63-4.206 10.67-4.206 10.67H.505L4.209.583z"/></svg></svg><svg width="10" height="9" xmlns="http://www.w3.org/2000/svg" xmlns:xlink="http://www.w3.org/1999/xlink" xmlns:svgjs="http://svgjs.com/svgjs" viewBox="0 0.132 10 8.736" fill="#1894ff" x="281" y="134"><svg xmlns="http://www.w3.org/2000/svg" xmlns:xlink="http://www.w3.org/1999/xlink" width="10" height="9" viewBox="0.332 0.921 8.72 7.618"><path paint-order="stroke fill markers" fill-rule="evenodd" d="M.332.921V6.37h3.52l.768 2.169.911-2.17h3.521V.922H.332z"/></svg></svg><svg width="3" height="3" xmlns="http://www.w3.org/2000/svg" xmlns:xlink="http://www.w3.org/1999/xlink" xmlns:svgjs="http://svgjs.com/svgjs" fill="#fff" x="282" y="136"><svg xmlns="http://www.w3.org/2000/svg" xmlns:xlink="http://www.w3.org/1999/xlink" width="3" height="3" viewBox="0.948 0.943 1.137 1.137"><path paint-order="stroke fill markers" fill-rule="evenodd" d="M1.517 2.08a.568.568 0 1 1 0-1.136.568.568 0 0 1 0 1.136z"/></svg></svg><svg width="2" height="3" xmlns="http://www.w3.org/2000/svg" xmlns:xlink="http://www.w3.org/1999/xlink" xmlns:svgjs="http://svgjs.com/svgjs" viewBox="0 0.5 2 2" fill="#fff" x="285" y="136"><svg xmlns="http://www.w3.org/2000/svg" xmlns:xlink="http://www.w3.org/1999/xlink" width="2" height="3" viewBox="0.121 0.943 1.137 1.137"><path paint-order="stroke fill markers" fill-rule="evenodd" d="M.69 2.08a.568.568 0 1 1 0-1.136.568.568 0 0 1 0 1.136z"/></svg></svg><svg width="2" height="3" xmlns="http://www.w3.org/2000/svg" xmlns:xlink="http://www.w3.org/1999/xlink" xmlns:svgjs="http://svgjs.com/svgjs" viewBox="0 0.5 2 2" fill="#fff" x="287" y="136"><svg xmlns="http://www.w3.org/2000/svg" xmlns:xlink="http://www.w3.org/1999/xlink" width="2" height="3" viewBox="0.279 0.943 1.137 1.137"><path paint-order="stroke fill markers" fill-rule="evenodd" d="M.848 2.08A.568.568 0 1 1 .846.943.568.568 0 0 1 .848 2.08z"/></svg></svg><svg width="10" height="9" xmlns="http://www.w3.org/2000/svg" xmlns:xlink="http://www.w3.org/1999/xlink" xmlns:svgjs="http://svgjs.com/svgjs" viewBox="0.5 0 9 9" fill="#fff" opacity=".561" x="339" y="161"><svg xmlns="http://www.w3.org/2000/svg" xmlns:xlink="http://www.w3.org/1999/xlink" width="10" height="9" viewBox="0.513 0.027 8.701 8.7"><path paint-order="stroke fill markers" fill-rule="evenodd" d="M4.864 8.727a4.346 4.346 0 0 1-4.35-4.35 4.346 4.346 0 0 1 4.35-4.35 4.346 4.346 0 0 1 4.35 4.35 4.346 4.346 0 0 1-4.35 4.35z"/></svg></svg><svg width="14" height="2" xmlns="http://www.w3.org/2000/svg" xmlns:xlink="http://www.w3.org/1999/xlink" xmlns:svgjs="http://svgjs.com/svgjs" viewBox="0.148 0 13.705 2" opacity=".122" x="339" y="96"><svg xmlns="http://www.w3.org/2000/svg" xmlns:xlink="http://www.w3.org/1999/xlink" width="14" height="2" viewBox="0.969 0.115 12.463 1.819"><path paint-order="stroke fill markers" fill-rule="evenodd" d="M.97.115h12.462v1.82H.969V.114z"/></svg></svg><svg width="5" height="5" xmlns="http://www.w3.org/2000/svg" xmlns:xlink="http://www.w3.org/1999/xlink" xmlns:svgjs="http://svgjs.com/svgjs" opacity=".122" x="333" y="95"><svg xmlns="http://www.w3.org/2000/svg" xmlns:xlink="http://www.w3.org/1999/xlink" width="5" height="5" viewBox="0.426 0.196 4.058 4.058"><path paint-order="stroke fill markers" fill-rule="evenodd" d="M2.455 4.254A2.027 2.027 0 0 1 .426 2.225c0-1.122.907-2.029 2.03-2.029 1.122 0 2.028.907 2.028 2.03 0 1.121-.906 2.028-2.029 2.028z"/></svg></svg><svg width="30" height="33" xmlns="http://www.w3.org/2000/svg" xmlns:xlink="http://www.w3.org/1999/xlink" xmlns:svgjs="http://svgjs.com/svgjs" viewBox="0 0.019 30 32.961" fill="#e6f3ff" x="304" y="135"><svg xmlns="http://www.w3.org/2000/svg" xmlns:xlink="http://www.w3.org/1999/xlink" width="30" height="33" viewBox="0.549 0.245 29.428 32.333"><path paint-order="stroke fill markers" fill-rule="evenodd" d="M20.091 2.234s-7.61-5.175-15.87 1.17c-8.261 6.343 0 28.578 0 28.578l17.915.596S41.07 15.698 20.09 2.234z"/></svg></svg><svg width="13" height="19" xmlns="http://www.w3.org/2000/svg" xmlns:xlink="http://www.w3.org/1999/xlink" xmlns:svgjs="http://svgjs.com/svgjs" viewBox="0.253 0 12.494 19" fill="#e6f3ff" x="325" y="144"><svg xmlns="http://www.w3.org/2000/svg" xmlns:xlink="http://www.w3.org/1999/xlink" width="13" height="19" viewBox="0.78 0.306 12.058 18.337"><path paint-order="stroke fill markers" fill-rule="evenodd" d="M6.83.436S17.94 15.43 9.945 18.643H3.036S-4.02-1.488 6.83.436z"/></svg></svg><svg width="25" height="26" xmlns="http://www.w3.org/2000/svg" xmlns:xlink="http://www.w3.org/1999/xlink" xmlns:svgjs="http://svgjs.com/svgjs" viewBox="0.114 0 24.772 26" fill="#1894ff" opacity=".078" x="308" y="144"><svg xmlns="http://www.w3.org/2000/svg" xmlns:xlink="http://www.w3.org/1999/xlink" width="25" height="26" viewBox="0.621 0.747 24.022 25.213"><path paint-order="stroke fill markers" fill-rule="evenodd" d="M24.644 18.623L21.407 5.296l-.962-2.013L18.108.747h-3.536s-1.558 1.881.553 3.151c2.11 1.27 2.033 1.387 1.686 4.23v.085a15.001 15.001 0 0 1-9.522 12.21L.62 22.973s23.633 9.048 24.023-4.35z"/></svg></svg><svg width="7" height="6" xmlns="http://www.w3.org/2000/svg" xmlns:xlink="http://www.w3.org/1999/xlink" xmlns:svgjs="http://svgjs.com/svgjs" viewBox="0.135 0 6.729 6" fill="#fff" x="317" y="135"><svg xmlns="http://www.w3.org/2000/svg" xmlns:xlink="http://www.w3.org/1999/xlink" width="7" height="6" viewBox="0.28 0.382 6.254 5.576"><path paint-order="stroke fill markers" fill-rule="evenodd" d="M6.534 1.88S5.59 6.164 3.808 5.95c-1.784-.214-1.558-1.3-1.558-1.3S.52 5.061.303 3.61C.084 2.156 1.443.551 2.86.392 4.28.233 6.534 1.88 6.534 1.88z"/></svg></svg><svg width="5" height="6" xmlns="http://www.w3.org/2000/svg" xmlns:xlink="http://www.w3.org/1999/xlink" xmlns:svgjs="http://svgjs.com/svgjs" viewBox="0 0.25 5 5.5" fill="#f4a28c" x="319" y="134"><svg xmlns="http://www.w3.org/2000/svg" xmlns:xlink="http://www.w3.org/1999/xlink" width="5" height="6" viewBox="0.153 0.459 4.588 5.047"><path paint-order="stroke fill markers" fill-rule="evenodd" d="M3.997 3.636c-.355.326-.689.673-1.001 1.04-.429.506-1.204 1.145-2.143.654C-.59 4.55.647 2.304.647 2.304s.678-2.5 2.251-1.679c1.414.736 2.707 1.488 1.099 3.01z"/></svg></svg><svg width="2" height="2" xmlns="http://www.w3.org/2000/svg" xmlns:xlink="http://www.w3.org/1999/xlink" xmlns:svgjs="http://svgjs.com/svgjs" viewBox="0.167 0 1.666 2" fill="#f4a28c" x="318" y="135"><svg xmlns="http://www.w3.org/2000/svg" xmlns:xlink="http://www.w3.org/1999/xlink" width="2" height="2" viewBox="0.859 0.315 0.941 1.129"><path paint-order="stroke fill markers" fill-rule="evenodd" d="M1.663 1.444s.39-.662-.144-1.056c-.534-.393-1.235.908.144 1.056z"/></svg></svg><svg width="2" height="2" xmlns="http://www.w3.org/2000/svg" xmlns:xlink="http://www.w3.org/1999/xlink" xmlns:svgjs="http://svgjs.com/svgjs" viewBox="0 0.214 2 1.572" fill="#f4a28c" x="322" y="137"><svg xmlns="http://www.w3.org/2000/svg" xmlns:xlink="http://www.w3.org/1999/xlink" width="2" height="2" viewBox="0.26 0.374 1.189 0.934"><path paint-order="stroke fill markers" fill-rule="evenodd" d="M.26.943s.273-.728.92-.537c.646.19.046 1.534-.92.537z"/></svg></svg><svg width="7" height="9" xmlns="http://www.w3.org/2000/svg" xmlns:xlink="http://www.w3.org/1999/xlink" xmlns:svgjs="http://svgjs.com/svgjs" viewBox="0 0.519 7 7.963" x="319" y="130"><svg xmlns="http://www.w3.org/2000/svg" xmlns:xlink="http://www.w3.org/1999/xlink" width="7" height="9" viewBox="0.394 0.973 6.198 7.051"><path paint-order="stroke fill markers" fill-rule="evenodd" d="M3.997 7.636s2.278 1.32 2.55-.908c.273-2.227-.821-1.258-.334-2.769.486-1.51.276-2.037-.752-2.04-1.028-.004-1.235 1.526-1.947.479C2.8 1.35 2.345.559 1.539 1.21c-.806.65-.927 1.168-.522 1.947.405.779-1.41 1.067-.202 2.726 1.207 1.66 3.353.6 3.353.6l-.171 1.153z"/></svg></svg><svg width="16" height="21" xmlns="http://www.w3.org/2000/svg" xmlns:xlink="http://www.w3.org/1999/xlink" xmlns:svgjs="http://svgjs.com/svgjs" viewBox="0 0.222 16 20.555" fill="#f4a28c" x="322" y="142"><svg xmlns="http://www.w3.org/2000/svg" xmlns:xlink="http://www.w3.org/1999/xlink" width="16" height="21" viewBox="0.224 0.471 15.675 20.138"><path paint-order="stroke fill markers" fill-rule="evenodd" d="M10.219 20.008a3.669 3.669 0 0 0 5.636-3.633 7.502 7.502 0 0 0-1.31-3.116C11.64 9.057 6.536 2.046 6.536 2.046S1.927-.937.47 1.306C-.986 3.55 4.475 3.842 4.475 3.842s.108 12.416 5.744 16.166z"/></svg></svg><svg width="13" height="19" xmlns="http://www.w3.org/2000/svg" xmlns:xlink="http://www.w3.org/1999/xlink" xmlns:svgjs="http://svgjs.com/svgjs" viewBox="0.489 0 12.021 19" fill="#e6f3ff" x="326" y="144"><svg xmlns="http://www.w3.org/2000/svg" xmlns:xlink="http://www.w3.org/1999/xlink" width="13" height="19" viewBox="0.475 0.046 11.771 18.605"><path paint-order="stroke fill markers" fill-rule="evenodd" d="M2.535.046L.475 1.842S.813 18.678 8.45 18.65c0 0 5.122.175 3.467-5.842C10.262 6.792 8.529 7.781 2.535.046z"/></svg></svg><svg width="13" height="19" xmlns="http://www.w3.org/2000/svg" xmlns:xlink="http://www.w3.org/1999/xlink" xmlns:svgjs="http://svgjs.com/svgjs" viewBox="0.489 0 12.021 19" fill="#e6f3ff" x="326" y="144"><svg xmlns="http://www.w3.org/2000/svg" xmlns:xlink="http://www.w3.org/1999/xlink" width="13" height="19" viewBox="0.475 0.046 11.771 18.605"><path paint-order="stroke fill markers" fill-rule="evenodd" d="M2.535.046L.475 1.842S.813 18.678 8.45 18.65c0 0 5.122.175 3.467-5.842C10.262 6.792 8.529 7.781 2.535.046z"/></svg></svg><svg width="44" height="12" xmlns="http://www.w3.org/2000/svg" xmlns:xlink="http://www.w3.org/1999/xlink" xmlns:svgjs="http://svgjs.com/svgjs" viewBox="0 0.225 44 11.55" fill="#2361b5" x="295" y="162"><svg xmlns="http://www.w3.org/2000/svg" xmlns:xlink="http://www.w3.org/1999/xlink" width="44" height="12" viewBox="0.09 0.048 43.806 11.499"><path paint-order="stroke fill markers" fill-rule="evenodd" d="M13.621 4.974a41.501 41.501 0 0 0 17.3-3.24c3.33-1.383 7.28-2.36 10.302-1.11C47.62 3.271 42.52 13.67 26.1 11.157l-15.166-.681s-9.483 0-10.515-2.088c-1.254-2.547.69-4.474 12.801-3.423l.401.008z"/></svg></svg><svg width="4" height="6" xmlns="http://www.w3.org/2000/svg" xmlns:xlink="http://www.w3.org/1999/xlink" xmlns:svgjs="http://svgjs.com/svgjs" viewBox="0 0.028 4 5.944" fill="#f4a28c" x="283" y="153"><svg xmlns="http://www.w3.org/2000/svg" xmlns:xlink="http://www.w3.org/1999/xlink" width="4" height="6" viewBox="0.311 0.47 3.193 4.745"><path paint-order="stroke fill markers" fill-rule="evenodd" d="M3.504 3.384S2.134-.066.712.541C-.71 1.15 2.106 5.215 2.106 5.215l1.398-1.83z"/></svg></svg><svg width="7" height="9" xmlns="http://www.w3.org/2000/svg" xmlns:xlink="http://www.w3.org/1999/xlink" xmlns:svgjs="http://svgjs.com/svgjs" viewBox="0.185 0 6.629 9" fill="#00de9a" x="282" y="148"><svg xmlns="http://www.w3.org/2000/svg" xmlns:xlink="http://www.w3.org/1999/xlink" width="7" height="9" viewBox="0.872 0.717 5.638 7.655"><path paint-order="stroke fill markers" fill-rule="evenodd" d="M.872 1.895L4.256.717l2.255 6.478-3.384 1.178L.872 1.895z"/></svg></svg><svg width="7" height="4" xmlns="http://www.w3.org/2000/svg" xmlns:xlink="http://www.w3.org/1999/xlink" xmlns:svgjs="http://svgjs.com/svgjs" viewBox="0 0.042 7 3.916" fill="#e6f3ff" x="316" y="170"><svg xmlns="http://www.w3.org/2000/svg" xmlns:xlink="http://www.w3.org/1999/xlink" width="7" height="4" viewBox="0.729 0.386 6.142 3.436"><path paint-order="stroke fill markers" fill-rule="evenodd" d="M6.354.386S-.711 1.34.995 2.97c1.706 1.633 5.877.413 5.877.413L6.354.386z"/></svg></svg><svg width="5" height="3" xmlns="http://www.w3.org/2000/svg" xmlns:xlink="http://www.w3.org/1999/xlink" xmlns:svgjs="http://svgjs.com/svgjs" viewBox="0.008 0 4.984 3" fill="#e6f3ff" x="309" y="170"><svg xmlns="http://www.w3.org/2000/svg" xmlns:xlink="http://www.w3.org/1999/xlink" width="5" height="3" viewBox="0.241 0.432 4.115 2.477"><path paint-order="stroke fill markers" fill-rule="evenodd" d="M.24 2.621L.553.432S4.97.67 4.283 2.103c-.685 1.433-4.042.518-4.042.518z"/></svg></svg><svg width="23" height="23" xmlns="http://www.w3.org/2000/svg" xmlns:xlink="http://www.w3.org/1999/xlink" xmlns:svgjs="http://svgjs.com/svgjs" viewBox="332 108 23 23" x="332" y="108"><svg width="23" height="23" xmlns="http://www.w3.org/2000/svg" xmlns:xlink="http://www.w3.org/1999/xlink" xmlns:svgjs="http://svgjs.com/svgjs" fill="#00de9a" x="332" y="108"><svg xmlns="http://www.w3.org/2000/svg" xmlns:xlink="http://www.w3.org/1999/xlink" width="23" height="23" viewBox="0.542 0.188 22.113 22.114"><path paint-order="stroke fill markers" fill-rule="evenodd" d="M11.599 22.302A11.047 11.047 0 0 1 .542 11.245 11.047 11.047 0 0 1 11.6.188a11.047 11.047 0 0 1 11.057 11.057 11.047 11.047 0 0 1-11.057 11.057z"/></svg></svg><svg width="9" height="9" xmlns="http://www.w3.org/2000/svg" xmlns:xlink="http://www.w3.org/1999/xlink" xmlns:svgjs="http://svgjs.com/svgjs" viewBox="0 0.195 9 8.61" fill="none" stroke-miterlimit="100" stroke-linecap="round" stroke="#fff" stroke-width="5" x="339" y="115"><svg xmlns="http://www.w3.org/2000/svg" width="9" height="9" viewBox="0.358 0.393 8.097 7.746"><path paint-order="stroke fill markers" d="M.358 3.793L3.025 8.14 8.455.393l-8.097 3.4"/></svg></svg></svg></svg>