<svg width="36" height="46" xmlns="http://www.w3.org/2000/svg" xmlns:xlink="http://www.w3.org/1999/xlink" xmlns:svgjs="http://svgjs.com/svgjs" viewBox="1191 30 36 46"><svg width="19" height="18" xmlns="http://www.w3.org/2000/svg" xmlns:xlink="http://www.w3.org/1999/xlink" xmlns:svgjs="http://svgjs.com/svgjs" viewBox="0.281 0 18.437 18" fill="none" x="1208" y="30"><svg xmlns="http://www.w3.org/2000/svg" xmlns:xlink="http://www.w3.org/1999/xlink" width="19" height="18" viewBox="0.761 0 18.239 17.806"><path paint-order="stroke fill markers" d="M19 17.806v-.058C18.872 8.353 10.811.047 1.39 0 1.18 0 .97.005.76.014 1.46 9.62 9.298 17.268 19 17.806z"/></svg></svg><svg width="20" height="16" xmlns="http://www.w3.org/2000/svg" xmlns:xlink="http://www.w3.org/1999/xlink" xmlns:svgjs="http://svgjs.com/svgjs" viewBox="0 0.149 20 15.701" fill="none" x="1196" y="60"><svg xmlns="http://www.w3.org/2000/svg" xmlns:xlink="http://www.w3.org/1999/xlink" width="20" height="16" viewBox="0.975 0.342 18.782 14.745"><path paint-order="stroke fill markers" d="M.975.342c3.287 4.364 9.92 13.445 9.893 13.433.576.794 1.492 1.312 2.523 1.312 1.03 0 1.946-.518 2.522-1.312 0 0 1.71-2.362 3.844-5.268C13.56 5.911 7.28 3.114.975.342z"/></svg></svg><svg width="36" height="39" xmlns="http://www.w3.org/2000/svg" xmlns:xlink="http://www.w3.org/1999/xlink" xmlns:svgjs="http://svgjs.com/svgjs" viewBox="0.16 0 35.681 39" fill="none" x="1191" y="30"><svg xmlns="http://www.w3.org/2000/svg" xmlns:xlink="http://www.w3.org/1999/xlink" width="36" height="39" viewBox="0.782 0.014 35.218 38.494"><path paint-order="stroke fill markers" d="M36 17.806C26.296 17.268 18.458 9.62 17.76.014 8.624.424.902 8.558.783 17.748c-.034 3.824 1.263 7.354 3.45 10.267 0 0 .693.923 1.743 2.327 5.148 4.686 11.713 7.785 18.781 8.165 3.38-4.615 7.8-10.503 7.795-10.492 2.175-2.898 3.469-6.408 3.448-10.21z"/></svg></svg><svg width="36" height="46" xmlns="http://www.w3.org/2000/svg" xmlns:xlink="http://www.w3.org/1999/xlink" xmlns:svgjs="http://svgjs.com/svgjs" viewBox="0.034 0 35.932 46" fill="#1894ff" x="1191" y="30"><svg xmlns="http://www.w3.org/2000/svg" xmlns:xlink="http://www.w3.org/1999/xlink" width="36" height="46" viewBox="0.782 0 35.218 45.087"><path paint-order="stroke fill markers" fill-rule="evenodd" d="M36 17.748C35.872 8.353 27.811.047 18.39 0 8.97.047.91 8.353.783 17.748c-.034 3.824 1.263 7.354 3.45 10.267.017-.054 11.697 15.757 11.636 15.76.576.794 1.492 1.312 2.523 1.312 1.03 0 1.946-.518 2.522-1.312-.06-.003 11.62-15.814 11.638-15.76 2.186-2.913 3.482-6.443 3.448-10.267z"/></svg></svg><svg width="27" height="27" xmlns="http://www.w3.org/2000/svg" xmlns:xlink="http://www.w3.org/1999/xlink" xmlns:svgjs="http://svgjs.com/svgjs" viewBox="0.015 0 26.969 27" fill="#fff" x="1196" y="34"><svg xmlns="http://www.w3.org/2000/svg" xmlns:xlink="http://www.w3.org/1999/xlink" width="27" height="27" viewBox="0.584 0.808 25.613 25.642"><path paint-order="stroke fill markers" fill-rule="evenodd" d="M26.197 13.692c.039 6.952-5.763 12.738-12.806 12.757C6.347 26.43.545 20.644.585 13.692.647 6.742 6.449.826 13.39.808c6.942.018 12.744 5.935 12.806 12.884z"/></svg></svg><svg width="15" height="15" xmlns="http://www.w3.org/2000/svg" xmlns:xlink="http://www.w3.org/1999/xlink" xmlns:svgjs="http://svgjs.com/svgjs" viewBox="0.002 0 14.995 15" fill="#00de9a" x="1202" y="40"><svg xmlns="http://www.w3.org/2000/svg" width="15" height="15" viewBox="0.146 0.381 14.49 14.495"><path paint-order="stroke fill markers" fill-rule="evenodd" d="M9.797 4.614c-.003-1.207-.007-2.413-.012-3.62a.608.608 0 0 0-.6-.608 326.949 326.949 0 0 0-3.588 0 .608.608 0 0 0-.6.608c-.005 1.207-.01 2.413-.013 3.62a.609.609 0 0 1-.603.607c-1.204.006-2.408.016-3.612.03a.615.615 0 0 0-.607.606C.154 7.056.15 8.255.146 9.454c-.001.331.269.6.602.599 1.208-.004 2.416-.006 3.623-.007.334 0 .604.27.604.603 0 1.207 0 2.414.002 3.62 0 .334.27.605.604.605 1.207.003 2.413.003 3.62 0a.606.606 0 0 0 .604-.605c.001-1.206.002-2.413.001-3.62 0-.334.27-.603.604-.603 1.208.002 2.415.003 3.623.007a.599.599 0 0 0 .603-.599c-.003-1.199-.009-2.398-.017-3.597a.615.615 0 0 0-.606-.607 568.492 568.492 0 0 0-3.612-.03.608.608 0 0 1-.604-.606z"/></svg></svg></svg>