<svg width="52" height="53" xmlns="http://www.w3.org/2000/svg" xmlns:xlink="http://www.w3.org/1999/xlink" xmlns:svgjs="http://svgjs.com/svgjs" viewBox="507 378 52 53"><svg width="52" height="53" xmlns="http://www.w3.org/2000/svg" xmlns:xlink="http://www.w3.org/1999/xlink" xmlns:svgjs="http://svgjs.com/svgjs" viewBox="507 378 52 53" x="507" y="378"><svg width="52" height="53" xmlns="http://www.w3.org/2000/svg" xmlns:xlink="http://www.w3.org/1999/xlink" xmlns:svgjs="http://svgjs.com/svgjs" fill="#1894ff" stroke-miterlimit="100" stroke="#000" x="507" y="378"><svg xmlns="http://www.w3.org/2000/svg" xmlns:xlink="http://www.w3.org/1999/xlink" width="52" height="53"><path paint-order="stroke fill markers" fill-rule="evenodd" d="M26 53C11.622 53 0 41.154 0 26.5 0 11.845 11.622 0 26 0s26 11.845 26 26.5C52 41.154 40.378 53 26 53z"/></svg></svg></svg><svg width="17" height="19" xmlns="http://www.w3.org/2000/svg" xmlns:xlink="http://www.w3.org/1999/xlink" xmlns:svgjs="http://svgjs.com/svgjs" viewBox="0 0.055 17 18.889" fill="#fff" x="525" y="395"><svg xmlns="http://www.w3.org/2000/svg" width="17" height="19" viewBox="0.255 0.091 16.727 18.586"><path paint-order="stroke fill markers" fill-rule="evenodd" d="M15.123 17.747v-1.859a2.788 2.788 0 0 0-2.787-2.787H4.902a2.788 2.788 0 0 0-2.788 2.787v1.859a.93.93 0 0 1-1.859 0v-1.859a4.646 4.646 0 0 1 4.647-4.646h7.434a4.646 4.646 0 0 1 4.646 4.646v1.859a.93.93 0 0 1-1.859 0zm-9.79-9.724a4.615 4.615 0 0 1-1.36-3.285c0-1.242.483-2.409 1.36-3.286A4.617 4.617 0 0 1 8.62.09c1.24 0 2.408.483 3.285 1.36a4.614 4.614 0 0 1 1.36 3.287A4.651 4.651 0 0 1 8.62 9.384a4.617 4.617 0 0 1-3.286-1.361zm.498-3.285a2.791 2.791 0 0 0 2.788 2.787 2.791 2.791 0 0 0 2.788-2.787 2.791 2.791 0 0 0-2.788-2.789A2.791 2.791 0 0 0 5.83 4.738z"/></svg></svg></svg>