<svg width="140" height="159" xmlns="http://www.w3.org/2000/svg" xmlns:xlink="http://www.w3.org/1999/xlink" xmlns:svgjs="http://svgjs.com/svgjs" viewBox="935 1209 140 159"><svg width="128" height="158" xmlns="http://www.w3.org/2000/svg" xmlns:xlink="http://www.w3.org/1999/xlink" xmlns:svgjs="http://svgjs.com/svgjs" viewBox="0.657 0 126.687 158" fill="#e6f3ff" x="935" y="1209"><svg xmlns="http://www.w3.org/2000/svg" xmlns:xlink="http://www.w3.org/1999/xlink" width="128" height="158" viewBox="1 0 126.588 157.877"><path paint-order="stroke fill markers" fill-rule="evenodd" d="M127.588 34.852v123.025H1V0h89.009l37.58 34.852"/></svg></svg><svg width="38" height="35" xmlns="http://www.w3.org/2000/svg" xmlns:xlink="http://www.w3.org/1999/xlink" xmlns:svgjs="http://svgjs.com/svgjs" viewBox="0.131 0 37.739 35" fill="#cde7ff" x="1025" y="1209"><svg xmlns="http://www.w3.org/2000/svg" xmlns:xlink="http://www.w3.org/1999/xlink" width="38" height="35" viewBox="0.009 0 37.579 34.852"><path paint-order="stroke fill markers" fill-rule="evenodd" d="M.009 0v34.852h37.58L.008 0z"/></svg></svg><svg width="13" height="33" xmlns="http://www.w3.org/2000/svg" xmlns:xlink="http://www.w3.org/1999/xlink" xmlns:svgjs="http://svgjs.com/svgjs" viewBox="0.455 0 12.089 33" fill="#00de9a" x="991" y="1242"><svg xmlns="http://www.w3.org/2000/svg" xmlns:xlink="http://www.w3.org/1999/xlink" width="13" height="33" viewBox="0.985 0.961 11.667 31.847"><path paint-order="stroke fill markers" fill-rule="evenodd" d="M.985.961H12.65v31.847H.985V.96z"/></svg></svg><svg width="33" height="12" xmlns="http://www.w3.org/2000/svg" xmlns:xlink="http://www.w3.org/1999/xlink" xmlns:svgjs="http://svgjs.com/svgjs" viewBox="0.122 0 32.757 12" fill="#00de9a" x="981" y="1253"><svg xmlns="http://www.w3.org/2000/svg" xmlns:xlink="http://www.w3.org/1999/xlink" width="33" height="12" viewBox="0.891 0.047 31.846 11.666"><path paint-order="stroke fill markers" fill-rule="evenodd" d="M32.737.047v11.667H.891V.047h31.846z"/></svg></svg><svg width="93" height="50" xmlns="http://www.w3.org/2000/svg" xmlns:xlink="http://www.w3.org/1999/xlink" xmlns:svgjs="http://svgjs.com/svgjs" viewBox="0 0.227 93 49.547" fill="#1894ff" opacity=".11" x="953" y="1285"><svg xmlns="http://www.w3.org/2000/svg" xmlns:xlink="http://www.w3.org/1999/xlink" width="93" height="50" viewBox="0.406 0.382 92.565 49.315"><path paint-order="stroke fill markers" fill-rule="evenodd" d="M.406.382h92.566v49.315H.406V.382z"/></svg></svg><svg width="43" height="65" xmlns="http://www.w3.org/2000/svg" xmlns:xlink="http://www.w3.org/1999/xlink" xmlns:svgjs="http://svgjs.com/svgjs" viewBox="0 0.074 43 64.852" fill="#1894ff" x="1026" y="1302"><svg xmlns="http://www.w3.org/2000/svg" xmlns:xlink="http://www.w3.org/1999/xlink" width="43" height="65" viewBox="0.194 0.595 42.576 64.213"><path paint-order="stroke fill markers" fill-rule="evenodd" d="M.194.595H42.77v64.213H.194V.595z"/></svg></svg><svg width="55" height="17" xmlns="http://www.w3.org/2000/svg" xmlns:xlink="http://www.w3.org/1999/xlink" xmlns:svgjs="http://svgjs.com/svgjs" viewBox="0 0.214 55 16.573" fill="#1894ff" x="1020" y="1296"><svg xmlns="http://www.w3.org/2000/svg" xmlns:xlink="http://www.w3.org/1999/xlink" width="55" height="17" viewBox="0.5 0.429 53.964 16.261"><path paint-order="stroke fill markers" fill-rule="evenodd" d="M6.64.429h41.684a6.135 6.135 0 0 1 6.14 6.14v3.98a6.134 6.134 0 0 1-6.14 6.14H6.64A6.134 6.134 0 0 1 .5 10.55V6.57A6.135 6.135 0 0 1 6.64.43z"/></svg></svg><svg width="55" height="17" xmlns="http://www.w3.org/2000/svg" xmlns:xlink="http://www.w3.org/1999/xlink" xmlns:svgjs="http://svgjs.com/svgjs" viewBox="0 0.214 55 16.573" fill="#e6f3ff" opacity=".129" x="1020" y="1296"><svg xmlns="http://www.w3.org/2000/svg" xmlns:xlink="http://www.w3.org/1999/xlink" width="55" height="17" viewBox="0.5 0.429 53.964 16.261"><path paint-order="stroke fill markers" fill-rule="evenodd" d="M6.64.429h41.684a6.135 6.135 0 0 1 6.14 6.14v3.98a6.134 6.134 0 0 1-6.14 6.14H6.64A6.134 6.134 0 0 1 .5 10.55V6.57A6.135 6.135 0 0 1 6.64.43z"/></svg></svg><svg width="43" height="28" xmlns="http://www.w3.org/2000/svg" xmlns:xlink="http://www.w3.org/1999/xlink" xmlns:svgjs="http://svgjs.com/svgjs" viewBox="0 0.203 43 27.594" fill="#e6f3ff" opacity=".459" x="1026" y="1326"><svg xmlns="http://www.w3.org/2000/svg" xmlns:xlink="http://www.w3.org/1999/xlink" width="43" height="28" viewBox="0.194 0.277 42.576 27.322"><path paint-order="stroke fill markers" fill-rule="evenodd" d="M.194.277H42.77v27.322H.194V.277z"/></svg></svg><svg width="19" height="20" xmlns="http://www.w3.org/2000/svg" xmlns:xlink="http://www.w3.org/1999/xlink" xmlns:svgjs="http://svgjs.com/svgjs" viewBox="0.294 0 18.411 20" opacity=".078" x="1026" y="1347"><svg xmlns="http://www.w3.org/2000/svg" xmlns:xlink="http://www.w3.org/1999/xlink" width="19" height="20" viewBox="0.194 0.015 18.206 19.777"><path paint-order="stroke fill markers" fill-rule="evenodd" d="M11.287.015s15.277 1.913 1.054 19.777H.194L3.618 2.037l7.67-2.022z"/></svg></svg><svg width="16" height="16" xmlns="http://www.w3.org/2000/svg" xmlns:xlink="http://www.w3.org/1999/xlink" xmlns:svgjs="http://svgjs.com/svgjs" viewBox="0.348 0 15.304 16" fill="#00de9a" x="1022" y="1342"><svg xmlns="http://www.w3.org/2000/svg" xmlns:xlink="http://www.w3.org/1999/xlink" width="16" height="16" viewBox="0.258 0.085 15.13 15.819"><path paint-order="stroke fill markers" fill-rule="evenodd" d="M11.628.806l1.326.802a5.043 5.043 0 0 1 1.705 6.925l-4.458 7.371L.258 9.89l4.459-7.371A5.043 5.043 0 0 1 11.628.806z"/></svg></svg><svg width="16" height="17" xmlns="http://www.w3.org/2000/svg" xmlns:xlink="http://www.w3.org/1999/xlink" xmlns:svgjs="http://svgjs.com/svgjs" viewBox="0 0.139 16 16.722" fill="#1894ff" x="1017" y="1351"><svg xmlns="http://www.w3.org/2000/svg" xmlns:xlink="http://www.w3.org/1999/xlink" width="16" height="17" viewBox="0.038 0.874 15.143 15.827"><path paint-order="stroke fill markers" fill-rule="evenodd" d="M5.24.883l9.942 6.014-4.46 7.37a5.043 5.043 0 0 1-6.924 1.706l-1.326-.802A5.043 5.043 0 0 1 .767 8.245L5.226.875l.013.008z"/></svg></svg><svg width="16" height="16" xmlns="http://www.w3.org/2000/svg" xmlns:xlink="http://www.w3.org/1999/xlink" xmlns:svgjs="http://svgjs.com/svgjs" viewBox="0.348 0 15.303 16" fill="#00de9a" x="1008" y="1342"><svg xmlns="http://www.w3.org/2000/svg" xmlns:xlink="http://www.w3.org/1999/xlink" width="16" height="16" viewBox="0.848 0.086 15.13 15.819"><path paint-order="stroke fill markers" fill-rule="evenodd" d="M12.218.807l1.326.801a5.043 5.043 0 0 1 1.705 6.926l-4.459 7.37L.848 9.89l4.458-7.37A5.043 5.043 0 0 1 12.218.806z"/></svg></svg><svg width="16" height="17" xmlns="http://www.w3.org/2000/svg" xmlns:xlink="http://www.w3.org/1999/xlink" xmlns:svgjs="http://svgjs.com/svgjs" viewBox="0 0.139 16 16.722" fill="#1894ff" x="1003" y="1351"><svg xmlns="http://www.w3.org/2000/svg" xmlns:xlink="http://www.w3.org/1999/xlink" width="16" height="17" viewBox="0.635 0.879 15.143 15.827"><path paint-order="stroke fill markers" fill-rule="evenodd" d="M5.836.887l9.942 6.015-4.459 7.37a5.043 5.043 0 0 1-6.925 1.705l-1.325-.802A5.043 5.043 0 0 1 1.363 8.25L5.823.88l.013.008z"/></svg></svg><svg width="33" height="11" xmlns="http://www.w3.org/2000/svg" xmlns:xlink="http://www.w3.org/1999/xlink" xmlns:svgjs="http://svgjs.com/svgjs" viewBox="0 0.391 33 10.219" fill="#1894ff" opacity=".129" x="953" y="1343"><svg xmlns="http://www.w3.org/2000/svg" width="33" height="11" viewBox="0.406 0.8 31.645 9.799"><path paint-order="stroke fill markers" fill-rule="evenodd" d="M.406.8h31.646v9.8H.406V.8z"/></svg></svg></svg>