<svg width="160" height="160" xmlns="http://www.w3.org/2000/svg" xmlns:xlink="http://www.w3.org/1999/xlink" xmlns:svgjs="http://svgjs.com/svgjs" viewBox="1067 1534 160 160"><svg width="160" height="160" xmlns="http://www.w3.org/2000/svg" xmlns:xlink="http://www.w3.org/1999/xlink" xmlns:svgjs="http://svgjs.com/svgjs" viewBox="1067 1534 160 160" x="1067" y="1534"><svg width="160" height="160" xmlns="http://www.w3.org/2000/svg" xmlns:xlink="http://www.w3.org/1999/xlink" xmlns:svgjs="http://svgjs.com/svgjs" fill="#fff" x="1067" y="1534"><svg xmlns="http://www.w3.org/2000/svg" xmlns:xlink="http://www.w3.org/1999/xlink" width="160" height="160"><path paint-order="stroke fill markers" fill-rule="evenodd" d="M25 0h110c13.825 0 25 11.175 25 25v110c0 13.825-11.175 25-25 25H25c-13.825 0-25-11.175-25-25V25C0 11.175 11.175 0 25 0z"/></svg></svg></svg><svg width="68" height="59" xmlns="http://www.w3.org/2000/svg" xmlns:xlink="http://www.w3.org/1999/xlink" xmlns:svgjs="http://svgjs.com/svgjs" viewBox="1113 1565 68 59" x="1113" y="1565"><svg width="64" height="44" xmlns="http://www.w3.org/2000/svg" xmlns:xlink="http://www.w3.org/1999/xlink" xmlns:svgjs="http://svgjs.com/svgjs" viewBox="0 0.286 64 43.428" fill="#2361b5" x="1115" y="1580"><svg xmlns="http://www.w3.org/2000/svg" xmlns:xlink="http://www.w3.org/1999/xlink" width="64" height="44" viewBox="0.253 0.418 63.098 42.816"><path paint-order="stroke fill markers" fill-rule="evenodd" d="M.253.418h63.098v42.816H.253V.418z"/></svg></svg><svg width="60" height="44" xmlns="http://www.w3.org/2000/svg" xmlns:xlink="http://www.w3.org/1999/xlink" xmlns:svgjs="http://svgjs.com/svgjs" viewBox="0 0.491 60 43.019" fill="#1894ff" x="1115" y="1580"><svg xmlns="http://www.w3.org/2000/svg" xmlns:xlink="http://www.w3.org/1999/xlink" width="60" height="44" viewBox="0.253 0.418 59.717 42.816"><path paint-order="stroke fill markers" fill-rule="evenodd" d="M.253.418h59.718v42.816H.253V.418z"/></svg></svg><svg width="8" height="13" xmlns="http://www.w3.org/2000/svg" xmlns:xlink="http://www.w3.org/1999/xlink" xmlns:svgjs="http://svgjs.com/svgjs" viewBox="0.1 0 7.8 13" fill="#1894ff" x="1115" y="1611"><svg xmlns="http://www.w3.org/2000/svg" xmlns:xlink="http://www.w3.org/1999/xlink" width="8" height="13" viewBox="0.253 0.967 6.76 11.268"><path paint-order="stroke fill markers" fill-rule="evenodd" d="M.253.967h6.76v11.267H.254V.967z"/></svg></svg><svg width="7" height="13" xmlns="http://www.w3.org/2000/svg" xmlns:xlink="http://www.w3.org/1999/xlink" xmlns:svgjs="http://svgjs.com/svgjs" viewBox="0 0.667 7 11.667" fill="#2361b5" x="1122" y="1611"><svg xmlns="http://www.w3.org/2000/svg" xmlns:xlink="http://www.w3.org/1999/xlink" width="7" height="13" viewBox="0.014 0.967 6.761 11.268"><path paint-order="stroke fill markers" fill-rule="evenodd" d="M.014.967h6.76v11.267H.014V.967z"/></svg></svg><svg width="8" height="13" xmlns="http://www.w3.org/2000/svg" xmlns:xlink="http://www.w3.org/1999/xlink" xmlns:svgjs="http://svgjs.com/svgjs" viewBox="0.1 0 7.8 13" fill="#1894ff" x="1128" y="1611"><svg xmlns="http://www.w3.org/2000/svg" xmlns:xlink="http://www.w3.org/1999/xlink" width="8" height="13" viewBox="0.774 0.967 6.76 11.268"><path paint-order="stroke fill markers" fill-rule="evenodd" d="M.774.967h6.76v11.267H.775V.967z"/></svg></svg><svg width="7" height="13" xmlns="http://www.w3.org/2000/svg" xmlns:xlink="http://www.w3.org/1999/xlink" xmlns:svgjs="http://svgjs.com/svgjs" viewBox="0 0.667 7 11.667" fill="#1894ff" x="1158" y="1611"><svg xmlns="http://www.w3.org/2000/svg" xmlns:xlink="http://www.w3.org/1999/xlink" width="7" height="13" viewBox="0.07 0.967 6.76 11.268"><path paint-order="stroke fill markers" fill-rule="evenodd" d="M.07.967h6.76v11.267H.07V.967z"/></svg></svg><svg width="8" height="13" xmlns="http://www.w3.org/2000/svg" xmlns:xlink="http://www.w3.org/1999/xlink" xmlns:svgjs="http://svgjs.com/svgjs" viewBox="0.1 0 7.8 13" fill="#2361b5" x="1164" y="1611"><svg xmlns="http://www.w3.org/2000/svg" xmlns:xlink="http://www.w3.org/1999/xlink" width="8" height="13" viewBox="0.83 0.967 6.76 11.268"><path paint-order="stroke fill markers" fill-rule="evenodd" d="M.83.967h6.76v11.267H.83V.967z"/></svg></svg><svg width="8" height="13" xmlns="http://www.w3.org/2000/svg" xmlns:xlink="http://www.w3.org/1999/xlink" xmlns:svgjs="http://svgjs.com/svgjs" viewBox="0.1 0 7.8 13" fill="#1894ff" x="1171" y="1611"><svg xmlns="http://www.w3.org/2000/svg" xmlns:xlink="http://www.w3.org/1999/xlink" width="8" height="13" viewBox="0.59 0.967 6.761 11.268"><path paint-order="stroke fill markers" fill-rule="evenodd" d="M.59.967h6.76v11.267H.59V.967z"/></svg></svg><svg width="13" height="22" xmlns="http://www.w3.org/2000/svg" xmlns:xlink="http://www.w3.org/1999/xlink" xmlns:svgjs="http://svgjs.com/svgjs" viewBox="0.389 0 12.223 22" fill="#2361b5" x="1146" y="1602"><svg xmlns="http://www.w3.org/2000/svg" xmlns:xlink="http://www.w3.org/1999/xlink" width="13" height="22" viewBox="0.802 0.953 11.268 20.281"><path paint-order="stroke fill markers" fill-rule="evenodd" d="M.802.953H12.07v20.281H.802V.954z"/></svg></svg><svg width="9" height="22" xmlns="http://www.w3.org/2000/svg" xmlns:xlink="http://www.w3.org/1999/xlink" xmlns:svgjs="http://svgjs.com/svgjs" viewBox="0.222 0 8.556 22" fill="#fff" x="1146" y="1602"><svg xmlns="http://www.w3.org/2000/svg" xmlns:xlink="http://www.w3.org/1999/xlink" width="9" height="22" viewBox="0.802 0.953 7.887 20.281"><path paint-order="stroke fill markers" fill-rule="evenodd" d="M.802.953h7.887v20.281H.802V.954z"/></svg></svg><svg width="12" height="22" xmlns="http://www.w3.org/2000/svg" xmlns:xlink="http://www.w3.org/1999/xlink" xmlns:svgjs="http://svgjs.com/svgjs" viewBox="0 0.2 12 21.6" fill="#2361b5" x="1135" y="1602"><svg xmlns="http://www.w3.org/2000/svg" xmlns:xlink="http://www.w3.org/1999/xlink" width="12" height="22" viewBox="0.535 0.953 11.267 20.281"><path paint-order="stroke fill markers" fill-rule="evenodd" d="M.535.953h11.267v20.281H.535V.954z"/></svg></svg><svg width="9" height="22" xmlns="http://www.w3.org/2000/svg" xmlns:xlink="http://www.w3.org/1999/xlink" xmlns:svgjs="http://svgjs.com/svgjs" viewBox="0.222 0 8.556 22" fill="#fff" x="1135" y="1602"><svg xmlns="http://www.w3.org/2000/svg" xmlns:xlink="http://www.w3.org/1999/xlink" width="9" height="22" viewBox="0.535 0.953 7.887 20.281"><path paint-order="stroke fill markers" fill-rule="evenodd" d="M.535.953h7.887v20.281H.535V.954z"/></svg></svg><svg width="24" height="13" xmlns="http://www.w3.org/2000/svg" xmlns:xlink="http://www.w3.org/1999/xlink" xmlns:svgjs="http://svgjs.com/svgjs" viewBox="0 0.5 24 12" fill="none" x="1146" y="1584"><svg xmlns="http://www.w3.org/2000/svg" xmlns:xlink="http://www.w3.org/1999/xlink" width="24" height="13" viewBox="0.802 0.925 22.535 11.268"><path paint-order="stroke fill markers" d="M.802.925h22.535v11.268H.802V.925z"/></svg></svg><svg width="20" height="13" xmlns="http://www.w3.org/2000/svg" xmlns:xlink="http://www.w3.org/1999/xlink" xmlns:svgjs="http://svgjs.com/svgjs" viewBox="0 0.618 20 11.765" fill="#fff" x="1146" y="1584"><svg xmlns="http://www.w3.org/2000/svg" xmlns:xlink="http://www.w3.org/1999/xlink" width="20" height="13" viewBox="0.802 0.925 19.155 11.268"><path paint-order="stroke fill markers" fill-rule="evenodd" d="M.802.925h19.155v11.268H.802V.925z"/></svg></svg><svg width="23" height="13" xmlns="http://www.w3.org/2000/svg" xmlns:xlink="http://www.w3.org/1999/xlink" xmlns:svgjs="http://svgjs.com/svgjs" viewBox="0 0.75 23 11.5" fill="#2361b5" x="1124" y="1584"><svg xmlns="http://www.w3.org/2000/svg" xmlns:xlink="http://www.w3.org/1999/xlink" width="23" height="13" viewBox="0.267 0.925 22.535 11.268"><path paint-order="stroke fill markers" fill-rule="evenodd" d="M.267.925h22.535v11.268H.267V.925z"/></svg></svg><svg width="20" height="13" xmlns="http://www.w3.org/2000/svg" xmlns:xlink="http://www.w3.org/1999/xlink" xmlns:svgjs="http://svgjs.com/svgjs" viewBox="0 0.618 20 11.765" fill="#fff" x="1124" y="1584"><svg xmlns="http://www.w3.org/2000/svg" xmlns:xlink="http://www.w3.org/1999/xlink" width="20" height="13" viewBox="0.267 0.925 19.155 11.268"><path paint-order="stroke fill markers" fill-rule="evenodd" d="M.267.925h19.155v11.268H.267V.925z"/></svg></svg><svg width="68" height="16" xmlns="http://www.w3.org/2000/svg" xmlns:xlink="http://www.w3.org/1999/xlink" xmlns:svgjs="http://svgjs.com/svgjs" viewBox="1113 1565 68 16" x="1113" y="1565"><svg width="68" height="16" xmlns="http://www.w3.org/2000/svg" xmlns:xlink="http://www.w3.org/1999/xlink" xmlns:svgjs="http://svgjs.com/svgjs" viewBox="0 0.067 68 15.866" fill="#2361b5" x="1113" y="1565"><svg xmlns="http://www.w3.org/2000/svg" xmlns:xlink="http://www.w3.org/1999/xlink" width="68" height="16" viewBox="0 0 67.604 15.774"><path paint-order="stroke fill markers" fill-rule="evenodd" d="M0 0h67.604v15.774H0V0z"/></svg></svg><svg width="64" height="16" xmlns="http://www.w3.org/2000/svg" xmlns:xlink="http://www.w3.org/1999/xlink" xmlns:svgjs="http://svgjs.com/svgjs" fill="#1894ff" x="1113" y="1565"><svg xmlns="http://www.w3.org/2000/svg" xmlns:xlink="http://www.w3.org/1999/xlink" width="64" height="16" viewBox="0 0 63.097 15.774"><path paint-order="stroke fill markers" fill-rule="evenodd" d="M0 0h63.097v15.774H0V0z"/></svg></svg></svg><svg width="12" height="12" xmlns="http://www.w3.org/2000/svg" xmlns:xlink="http://www.w3.org/1999/xlink" xmlns:svgjs="http://svgjs.com/svgjs" viewBox="1141 1567 12 12" x="1141" y="1567"><svg width="12" height="12" xmlns="http://www.w3.org/2000/svg" xmlns:xlink="http://www.w3.org/1999/xlink" xmlns:svgjs="http://svgjs.com/svgjs" fill="#2361b5" x="1141" y="1567"><svg xmlns="http://www.w3.org/2000/svg" xmlns:xlink="http://www.w3.org/1999/xlink" width="12" height="12" viewBox="0.168 0.257 11.268 11.268"><path paint-order="stroke fill markers" fill-rule="evenodd" d="M.965 6.222l5.167-5.168a2.72 2.72 0 0 1 3.847 0l.66.66a2.72 2.72 0 0 1 0 3.847L5.472 10.73a2.72 2.72 0 0 1-3.847 0l-.66-.661a2.717 2.717 0 0 1 0-3.846z"/></svg></svg><svg width="9" height="9" xmlns="http://www.w3.org/2000/svg" xmlns:xlink="http://www.w3.org/1999/xlink" xmlns:svgjs="http://svgjs.com/svgjs" fill="#fff" x="1141" y="1570"><svg xmlns="http://www.w3.org/2000/svg" xmlns:xlink="http://www.w3.org/1999/xlink" width="9" height="9" viewBox="0.168 0.638 7.887 7.887"><path paint-order="stroke fill markers" fill-rule="evenodd" d="M8.056 5.145L5.472 7.729a2.72 2.72 0 0 1-3.847 0l-.66-.661a2.718 2.718 0 0 1 0-3.846L3.55.638l4.507 4.507z"/></svg></svg></svg><svg width="40" height="29" xmlns="http://www.w3.org/2000/svg" xmlns:xlink="http://www.w3.org/1999/xlink" xmlns:svgjs="http://svgjs.com/svgjs" viewBox="1125 1587 40 29" x="1125" y="1587"><svg width="3" height="6" xmlns="http://www.w3.org/2000/svg" xmlns:xlink="http://www.w3.org/1999/xlink" xmlns:svgjs="http://svgjs.com/svgjs" fill="#00de9a" x="1139" y="1610"><svg xmlns="http://www.w3.org/2000/svg" xmlns:xlink="http://www.w3.org/1999/xlink" width="3" height="6" viewBox="0.347 0.84 2.254 4.507"><path paint-order="stroke fill markers" fill-rule="evenodd" d="M.347.84H2.6v4.507H.347V.84z"/></svg></svg><svg width="3" height="6" xmlns="http://www.w3.org/2000/svg" xmlns:xlink="http://www.w3.org/1999/xlink" xmlns:svgjs="http://svgjs.com/svgjs" fill="#00de9a" x="1148" y="1610"><svg xmlns="http://www.w3.org/2000/svg" xmlns:xlink="http://www.w3.org/1999/xlink" width="3" height="6" viewBox="0.495 0.84 2.254 4.507"><path paint-order="stroke fill markers" fill-rule="evenodd" d="M.495.84H2.75v4.507H.495V.84z"/></svg></svg><svg width="8" height="7" xmlns="http://www.w3.org/2000/svg" xmlns:xlink="http://www.w3.org/1999/xlink" xmlns:svgjs="http://svgjs.com/svgjs" viewBox="0.5 0 7 7" fill="#00de9a" x="1125" y="1587"><svg xmlns="http://www.w3.org/2000/svg" xmlns:xlink="http://www.w3.org/1999/xlink" width="8" height="7" viewBox="0.955 0.506 6.1 6.1"><path paint-order="stroke fill markers" fill-rule="evenodd" d="M.955 5.013L5.46.506 7.054 2.1 2.548 6.606.955 5.013z"/></svg></svg><svg width="7" height="7" xmlns="http://www.w3.org/2000/svg" xmlns:xlink="http://www.w3.org/1999/xlink" xmlns:svgjs="http://svgjs.com/svgjs" fill="#00de9a" x="1135" y="1587"><svg xmlns="http://www.w3.org/2000/svg" xmlns:xlink="http://www.w3.org/1999/xlink" width="7" height="7" viewBox="0.118 0.507 6.1 6.1"><path paint-order="stroke fill markers" fill-rule="evenodd" d="M.118 5.014L4.625.507l1.593 1.594L1.71 6.607.118 5.014z"/></svg></svg><svg width="7" height="7" xmlns="http://www.w3.org/2000/svg" xmlns:xlink="http://www.w3.org/1999/xlink" xmlns:svgjs="http://svgjs.com/svgjs" fill="#00de9a" x="1148" y="1587"><svg xmlns="http://www.w3.org/2000/svg" xmlns:xlink="http://www.w3.org/1999/xlink" width="7" height="7" viewBox="0.863 0.51 6.1 6.1"><path paint-order="stroke fill markers" fill-rule="evenodd" d="M.863 5.016L5.369.51l1.593 1.593-4.506 4.506L.863 5.016z"/></svg></svg><svg width="7" height="7" xmlns="http://www.w3.org/2000/svg" xmlns:xlink="http://www.w3.org/1999/xlink" xmlns:svgjs="http://svgjs.com/svgjs" fill="#00de9a" x="1158" y="1587"><svg xmlns="http://www.w3.org/2000/svg" width="7" height="7" viewBox="0.027 0.51 6.1 6.1"><path paint-order="stroke fill markers" fill-rule="evenodd" d="M.027 5.016L4.534.51l1.593 1.593-4.506 4.506L.027 5.016z"/></svg></svg></svg></svg></svg>