<svg width="407" height="313" xmlns="http://www.w3.org/2000/svg" xmlns:xlink="http://www.w3.org/1999/xlink" xmlns:svgjs="http://svgjs.com/svgjs" viewBox="192 3047 407 313"><svg width="151" height="165" xmlns="http://www.w3.org/2000/svg" xmlns:xlink="http://www.w3.org/1999/xlink" xmlns:svgjs="http://svgjs.com/svgjs" viewBox="0.074 0 150.852 165" fill="#f4a28c" x="326" y="3154"><svg xmlns="http://www.w3.org/2000/svg" xmlns:xlink="http://www.w3.org/1999/xlink" width="151" height="165" viewBox="0.846 0.374 150.001 164.069"><path paint-order="stroke fill markers" fill-rule="evenodd" d="M128.411.374S91.782 8.926 83.965 48.37s-8.409 74.102-29.924 75.303c-21.515 1.201-37.06-81.274-37.06-81.274L.847 46.577s16.71 179.292 103.989 95.617C192.114 58.518 128.41.374 128.41.374z"/></svg></svg><svg width="65" height="140" xmlns="http://www.w3.org/2000/svg" xmlns:xlink="http://www.w3.org/1999/xlink" xmlns:svgjs="http://svgjs.com/svgjs" viewBox="0.204 0 64.592 140" fill="#1894ff" x="393" y="3153"><svg xmlns="http://www.w3.org/2000/svg" xmlns:xlink="http://www.w3.org/1999/xlink" width="65" height="140" viewBox="0.094 0.137 64.24 139.238"><path paint-order="stroke fill markers" fill-rule="evenodd" d="M64.334.137S3.787 6.179.094 107.819l53.375 31.556L64.334.137z"/></svg></svg><svg width="66" height="140" xmlns="http://www.w3.org/2000/svg" xmlns:xlink="http://www.w3.org/1999/xlink" xmlns:svgjs="http://svgjs.com/svgjs" viewBox="0.276 0 65.448 140" fill="#e6f3ff" x="392" y="3153"><svg xmlns="http://www.w3.org/2000/svg" xmlns:xlink="http://www.w3.org/1999/xlink" width="66" height="140" viewBox="0.242 0.137 65.092 139.238"><path paint-order="stroke fill markers" fill-rule="evenodd" d="M65.334.137S3.984 6.179.242 107.819l54.083 31.556L65.334.137z"/></svg></svg><svg width="26" height="36" xmlns="http://www.w3.org/2000/svg" xmlns:xlink="http://www.w3.org/1999/xlink" xmlns:svgjs="http://svgjs.com/svgjs" viewBox="0.03 0 25.94 36" fill="#f4a28c" x="487" y="3088"><svg xmlns="http://www.w3.org/2000/svg" xmlns:xlink="http://www.w3.org/1999/xlink" width="26" height="36" viewBox="0.642 0.723 25.183 34.949"><path paint-order="stroke fill markers" fill-rule="evenodd" d="M2.374 9.412S-.19 21.712.92 30.23a6.328 6.328 0 0 0 7.172 5.378c4.285-.627 9.897-2.707 12.066-9.126l5.02-10.47a11.26 11.26 0 0 0-3.586-12.55C15.175-2.386 3.557 1.846 2.373 9.411z"/></svg></svg><svg width="23" height="43" xmlns="http://www.w3.org/2000/svg" xmlns:xlink="http://www.w3.org/1999/xlink" xmlns:svgjs="http://svgjs.com/svgjs" viewBox="0 0.686 23 41.629" fill="#f4a28c" x="490" y="3105"><svg xmlns="http://www.w3.org/2000/svg" xmlns:xlink="http://www.w3.org/1999/xlink" width="23" height="43" viewBox="0.108 0.965 22.734 41.148"><path paint-order="stroke fill markers" fill-rule="evenodd" d="M21.211.965l1.632 41.148-22.735-.718 7.943-29.654L21.211.965z"/></svg></svg><svg width="30" height="34" xmlns="http://www.w3.org/2000/svg" xmlns:xlink="http://www.w3.org/1999/xlink" xmlns:svgjs="http://svgjs.com/svgjs" viewBox="0 0.126 30 33.749" x="485" y="3082"><svg xmlns="http://www.w3.org/2000/svg" xmlns:xlink="http://www.w3.org/1999/xlink" width="30" height="34" viewBox="0.208 0.222 29.192 32.84"><path paint-order="stroke fill markers" fill-rule="evenodd" d="M.277 1.841c-.57 4.572 2.445 10.735 7.127 14.468 4.681 3.734 7.728.754 11.6.467a10.488 10.488 0 0 0-1.345 11.42 8.499 8.499 0 0 0 9.825 4.59l1.793-16.136a12.837 12.837 0 0 0-5.092-12.102C22.57 3.36 19.34.222 13.238.222L.277 1.842"/></svg></svg><svg width="7" height="9" xmlns="http://www.w3.org/2000/svg" xmlns:xlink="http://www.w3.org/1999/xlink" xmlns:svgjs="http://svgjs.com/svgjs" viewBox="0 0.172 7 8.655" fill="#f4a28c" x="501" y="3105"><svg xmlns="http://www.w3.org/2000/svg" xmlns:xlink="http://www.w3.org/1999/xlink" width="7" height="9" viewBox="0.368 0.587 6.382 7.891"><path paint-order="stroke fill markers" fill-rule="evenodd" d="M.368 4.676S1.032-.129 4.6.678c3.568.807 2.636 7.728-2.348 7.8L.368 4.675z"/></svg></svg><svg width="7" height="10" xmlns="http://www.w3.org/2000/svg" xmlns:xlink="http://www.w3.org/1999/xlink" xmlns:svgjs="http://svgjs.com/svgjs" viewBox="0.179 0 6.643 10" fill="#f4a28c" x="483" y="3105"><svg xmlns="http://www.w3.org/2000/svg" xmlns:xlink="http://www.w3.org/1999/xlink" width="7" height="10" viewBox="0.551 0.248 6.074 9.144"><path paint-order="stroke fill markers" fill-rule="evenodd" d="M5.118.248L1.084 4.64a2.008 2.008 0 0 0 .879 3.281l4.662 1.47L5.118.249z"/></svg></svg><svg width="11" height="15" xmlns="http://www.w3.org/2000/svg" xmlns:xlink="http://www.w3.org/1999/xlink" xmlns:svgjs="http://svgjs.com/svgjs" viewBox="0 0.145 11 14.711" fill="#ce8172" opacity=".31" x="493" y="3119"><svg xmlns="http://www.w3.org/2000/svg" xmlns:xlink="http://www.w3.org/1999/xlink" width="11" height="15" viewBox="0.497 0.663 10.363 13.859"><path paint-order="stroke fill markers" fill-rule="evenodd" d="M3.043 4.159A14.933 14.933 0 0 0 10.861.663S9.64 8.067.497 14.522L3.043 4.159z"/></svg></svg><svg width="155" height="171" xmlns="http://www.w3.org/2000/svg" xmlns:xlink="http://www.w3.org/1999/xlink" xmlns:svgjs="http://svgjs.com/svgjs" viewBox="0 0.31 155 170.381" fill="#e6f3ff" x="425" y="3146"><svg xmlns="http://www.w3.org/2000/svg" xmlns:xlink="http://www.w3.org/1999/xlink" width="155" height="171" viewBox="0.03 0.395 154.299 169.61"><path paint-order="stroke fill markers" fill-rule="evenodd" d="M87.843 1.113L65.109.395S4.149 1.345.402 45.756c-3.747 44.41 22.197 79.05 13.537 113.707l82.671 10.542S232.137 33.833 87.843 1.113z"/></svg></svg><svg width="125" height="139" xmlns="http://www.w3.org/2000/svg" xmlns:xlink="http://www.w3.org/1999/xlink" xmlns:svgjs="http://svgjs.com/svgjs" viewBox="0.887 0 123.225 139" fill="#1894ff" opacity=".078" x="438" y="3177"><svg xmlns="http://www.w3.org/2000/svg" xmlns:xlink="http://www.w3.org/1999/xlink" width="125" height="139" viewBox="0.921 0.09 123.102 138.861"><path paint-order="stroke fill markers" fill-rule="evenodd" d="M85.672.09s-27.97 22.375-9.359 62.52c18.61 40.142 7.172 52.872-20.762 45.468-27.934-7.405-39.14-37.652-39.14-37.652L2.715 112.864A56.336 56.336 0 0 1 .92 128.41l82.671 10.542 2.994-3.137 37.437-52.622L85.672.09z"/></svg></svg><svg width="67" height="90" xmlns="http://www.w3.org/2000/svg" xmlns:xlink="http://www.w3.org/1999/xlink" xmlns:svgjs="http://svgjs.com/svgjs" viewBox="0 0.013 67 89.974" fill="#1894ff" x="394" y="3208"><svg xmlns="http://www.w3.org/2000/svg" xmlns:xlink="http://www.w3.org/1999/xlink" width="67" height="90" viewBox="0.321 0.394 66.249 88.966"><path paint-order="stroke fill markers" fill-rule="evenodd" d="M.321 6.973L57.01.394l9.562 82.388L9.883 89.36.32 6.973z"/></svg></svg><svg width="36" height="46" xmlns="http://www.w3.org/2000/svg" xmlns:xlink="http://www.w3.org/1999/xlink" xmlns:svgjs="http://svgjs.com/svgjs" viewBox="0.062 0 35.876 46" opacity=".078" x="425" y="3248"><svg xmlns="http://www.w3.org/2000/svg" xmlns:xlink="http://www.w3.org/1999/xlink" width="36" height="46" viewBox="0.422 0 35.14 45.056"><path paint-order="stroke fill markers" fill-rule="evenodd" d="M7.735 4.84S-7.45 11.906 5.942 24.403c13.393 12.496 9.718 20.654 9.718 20.654l19.901-2.313-1.577-13.5L13.903 0 7.735 4.84z"/></svg></svg><svg width="32" height="16" xmlns="http://www.w3.org/2000/svg" xmlns:xlink="http://www.w3.org/1999/xlink" xmlns:svgjs="http://svgjs.com/svgjs" viewBox="0 0.23 32 15.541" fill="#ffd200" x="406" y="3204"><svg xmlns="http://www.w3.org/2000/svg" xmlns:xlink="http://www.w3.org/1999/xlink" width="32" height="16" viewBox="0.581 0.271 30.852 14.983"><path paint-order="stroke fill markers" fill-rule="evenodd" d="M.58 3.696L30.092.27l1.342 11.559-29.51 3.424L.58 3.696z"/></svg></svg><svg width="32" height="16" xmlns="http://www.w3.org/2000/svg" xmlns:xlink="http://www.w3.org/1999/xlink" xmlns:svgjs="http://svgjs.com/svgjs" viewBox="0 0.23 32 15.541" fill="#2361b5" x="406" y="3204"><svg xmlns="http://www.w3.org/2000/svg" xmlns:xlink="http://www.w3.org/1999/xlink" width="32" height="16" viewBox="0.581 0.271 30.852 14.983"><path paint-order="stroke fill markers" fill-rule="evenodd" d="M.58 3.696L30.092.27l1.342 11.559-29.51 3.424L.58 3.696z"/></svg></svg><svg width="151" height="155" xmlns="http://www.w3.org/2000/svg" xmlns:xlink="http://www.w3.org/1999/xlink" xmlns:svgjs="http://svgjs.com/svgjs" viewBox="0 0.037 151 154.926" fill="#f4a28c" x="446" y="3165"><svg xmlns="http://www.w3.org/2000/svg" xmlns:xlink="http://www.w3.org/1999/xlink" width="151" height="155" viewBox="0.505 0.4 150.258 154.164"><path paint-order="stroke fill markers" fill-rule="evenodd" d="M75.198 42.211C61.159 15.12 93.952-12.042 118.228 6.496c12.73 9.736 24.706 23.81 28.507 43.532 9.216 47.656 3.801 90.435-28.686 102.878C85.56 165.349.505 103.708.505 103.708l10.757-17.93s74.191 53.071 92.049 16.8c11.331-22.859-16.029-36.987-28.113-60.367z"/></svg></svg><svg width="99" height="55" xmlns="http://www.w3.org/2000/svg" xmlns:xlink="http://www.w3.org/1999/xlink" xmlns:svgjs="http://svgjs.com/svgjs" viewBox="0 0.343 99 54.314" fill="#e6f3ff" x="436" y="3305"><svg xmlns="http://www.w3.org/2000/svg" xmlns:xlink="http://www.w3.org/1999/xlink" width="99" height="55" viewBox="0.16 0.463 98.27 53.913"><path paint-order="stroke fill markers" fill-rule="evenodd" d="M2.939.463L.159 54.376h98.27L85.61 11.006 2.94.462z"/></svg></svg><svg width="21" height="19" xmlns="http://www.w3.org/2000/svg" xmlns:xlink="http://www.w3.org/1999/xlink" xmlns:svgjs="http://svgjs.com/svgjs" viewBox="0.085 0 20.83 19" fill="#1894ff" x="486" y="3107"><svg xmlns="http://www.w3.org/2000/svg" xmlns:xlink="http://www.w3.org/1999/xlink" width="21" height="19" viewBox="0.26 0.327 20.11 18.343"><path paint-order="stroke fill markers" fill-rule="evenodd" d="M.612 7.392s-2.384 10.165 5.254 11.223C13.503 19.673 20.37 5.168 20.37 5.168s-6.4.969-4.195-4.84c0 .017-8.678 6.15-15.563 7.064z"/></svg></svg><svg width="85" height="104" xmlns="http://www.w3.org/2000/svg" xmlns:xlink="http://www.w3.org/1999/xlink" xmlns:svgjs="http://svgjs.com/svgjs" viewBox="0 0.611 85 102.778" fill="#1894ff" x="514" y="3163"><svg xmlns="http://www.w3.org/2000/svg" xmlns:xlink="http://www.w3.org/1999/xlink" width="85" height="104" viewBox="0.21 0.782 84.79 102.523"><path paint-order="stroke fill markers" fill-rule="evenodd" d="M44.795 3.799s43.389 11.008 40.018 99.507H32.64s-.125-12.013-12.21-25.944C-.618 53.104-20.502-14.184 44.796 3.8z"/></svg></svg><svg width="86" height="105" xmlns="http://www.w3.org/2000/svg" xmlns:xlink="http://www.w3.org/1999/xlink" xmlns:svgjs="http://svgjs.com/svgjs" viewBox="0 0.506 86 103.987" fill="#e6f3ff" x="513" y="3162"><svg xmlns="http://www.w3.org/2000/svg" xmlns:xlink="http://www.w3.org/1999/xlink" width="86" height="105" viewBox="0.462 0.877 85.538 103.429"><path paint-order="stroke fill markers" fill-rule="evenodd" d="M45.44 3.92s43.772 11.106 40.372 100.386H33.177s-.127-12.12-12.317-26.173C-.375 53.661-20.434-14.222 45.44 3.92z"/></svg></svg><svg width="26" height="38" xmlns="http://www.w3.org/2000/svg" xmlns:xlink="http://www.w3.org/1999/xlink" xmlns:svgjs="http://svgjs.com/svgjs" viewBox="0.52 0 24.96 38" fill="#f4a28c" x="432" y="3231"><svg xmlns="http://www.w3.org/2000/svg" xmlns:xlink="http://www.w3.org/1999/xlink" width="26" height="38" viewBox="0.737 0.207 24.597 37.448"><path paint-order="stroke fill markers" fill-rule="evenodd" d="M25.334 19.779S16.674.523 10.274.218C3.873-.086 1.112 5.722 2.33 13.343c1.22 7.619-9.502 13.518 12.174 24.311L25.334 19.78z"/></svg></svg><svg width="38" height="28" xmlns="http://www.w3.org/2000/svg" xmlns:xlink="http://www.w3.org/1999/xlink" xmlns:svgjs="http://svgjs.com/svgjs" viewBox="0.222 0 37.555 28" fill="#f4a28c" x="310" y="3183"><svg xmlns="http://www.w3.org/2000/svg" xmlns:xlink="http://www.w3.org/1999/xlink" width="38" height="28" viewBox="0.978 0.559 36.1 26.915"><path paint-order="stroke fill markers" fill-rule="evenodd" d="M18.047 27.474l16.297-7.458s6.15-18.808 0-19.418c-6.15-.61-10.847 6.114-17.498 3.353C10.194 1.19-5.37 2.714 3.793 14.009c9.162 11.296 14.254 13.465 14.254 13.465z"/></svg></svg><svg width="26" height="40" xmlns="http://www.w3.org/2000/svg" xmlns:xlink="http://www.w3.org/1999/xlink" xmlns:svgjs="http://svgjs.com/svgjs" viewBox="0 0.395 26 39.209" fill="#1894ff" x="316" y="3150"><svg xmlns="http://www.w3.org/2000/svg" xmlns:xlink="http://www.w3.org/1999/xlink" width="26" height="40" viewBox="0.213 0.698 25.621 38.638"><path paint-order="stroke fill markers" fill-rule="evenodd" d="M.214.698h25.62v38.638H.214V.698z"/></svg></svg><svg width="23" height="33" xmlns="http://www.w3.org/2000/svg" xmlns:xlink="http://www.w3.org/1999/xlink" xmlns:svgjs="http://svgjs.com/svgjs" viewBox="0 0.67 23 31.66" fill="#1894ff" x="336" y="3099"><svg xmlns="http://www.w3.org/2000/svg" xmlns:xlink="http://www.w3.org/1999/xlink" width="23" height="33" viewBox="0.178 0.987 22.579 31.081"><path paint-order="stroke fill markers" fill-rule="evenodd" d="M9.045 2.368L22.4 25.846a2.728 2.728 0 0 1-1.023 3.723l-3.764 2.14a2.728 2.728 0 0 1-3.722-1.023L.536 7.208A2.728 2.728 0 0 1 1.56 3.485l3.764-2.14a2.727 2.727 0 0 1 3.722 1.023z"/></svg></svg><svg width="23" height="33" xmlns="http://www.w3.org/2000/svg" xmlns:xlink="http://www.w3.org/1999/xlink" xmlns:svgjs="http://svgjs.com/svgjs" viewBox="0 0.67 23 31.66" fill="#00de9a" opacity=".129" x="336" y="3099"><svg xmlns="http://www.w3.org/2000/svg" xmlns:xlink="http://www.w3.org/1999/xlink" width="23" height="33" viewBox="0.178 0.987 22.579 31.081"><path paint-order="stroke fill markers" fill-rule="evenodd" d="M9.045 2.368L22.4 25.846a2.728 2.728 0 0 1-1.023 3.723l-3.764 2.14a2.728 2.728 0 0 1-3.722-1.023L.536 7.208A2.728 2.728 0 0 1 1.56 3.485l3.764-2.14a2.727 2.727 0 0 1 3.722 1.023z"/></svg></svg><svg width="26" height="18" xmlns="http://www.w3.org/2000/svg" xmlns:xlink="http://www.w3.org/1999/xlink" xmlns:svgjs="http://svgjs.com/svgjs" viewBox="0 0.658 26 16.684" fill="#2361b5" opacity=".459" x="316" y="3164"><svg xmlns="http://www.w3.org/2000/svg" xmlns:xlink="http://www.w3.org/1999/xlink" width="26" height="18" viewBox="0.213 0.952 25.621 16.441"><path paint-order="stroke fill markers" fill-rule="evenodd" d="M.214.952h25.62v16.44H.214V.953z"/></svg></svg><svg width="8" height="22" xmlns="http://www.w3.org/2000/svg" xmlns:xlink="http://www.w3.org/1999/xlink" xmlns:svgjs="http://svgjs.com/svgjs" viewBox="0 0.077 8 21.847" fill="#00de9a" x="234" y="3163"><svg xmlns="http://www.w3.org/2000/svg" xmlns:xlink="http://www.w3.org/1999/xlink" width="8" height="22" viewBox="0.008 0.595 7.727 21.103"><path paint-order="stroke fill markers" fill-rule="evenodd" d="M.008.595h7.728v21.102H.008V.595z"/></svg></svg><svg width="22" height="9" xmlns="http://www.w3.org/2000/svg" xmlns:xlink="http://www.w3.org/1999/xlink" xmlns:svgjs="http://svgjs.com/svgjs" viewBox="0 0.472 22 8.056" fill="#00de9a" x="227" y="3170"><svg xmlns="http://www.w3.org/2000/svg" xmlns:xlink="http://www.w3.org/1999/xlink" width="22" height="9" viewBox="0.339 0.282 21.103 7.728"><path paint-order="stroke fill markers" fill-rule="evenodd" d="M21.441.282V8.01H.34V.282H21.44z"/></svg></svg><svg width="143" height="99" xmlns="http://www.w3.org/2000/svg" xmlns:xlink="http://www.w3.org/1999/xlink" xmlns:svgjs="http://svgjs.com/svgjs" viewBox="0 0.302 143 98.396" fill="#e6f3ff" x="201" y="3057"><svg xmlns="http://www.w3.org/2000/svg" xmlns:xlink="http://www.w3.org/1999/xlink" width="143" height="99" viewBox="0.592 0.812 141.769 97.549"><path paint-order="stroke fill markers" fill-rule="evenodd" d="M137.195 93.698s13.733-9.43-3.586-17.176c-17.32-7.745 1.793-26.517-14.182-37.508-15.975-10.99-39.839.95-48.068-21.03-8.23-21.982-45.666-23.793-59.453 0C-1.882 41.776-8.372 81.058 24.133 76.522c32.506-4.536 72.327-12.335 70.498 9.646-1.829 21.981 20.583 7.53 20.583 7.53h21.98z"/></svg></svg><svg width="25" height="25" xmlns="http://www.w3.org/2000/svg" xmlns:xlink="http://www.w3.org/1999/xlink" xmlns:svgjs="http://svgjs.com/svgjs" viewBox="0.033 0 24.935 25" fill="#2361b5" x="252" y="3059"><svg xmlns="http://www.w3.org/2000/svg" xmlns:xlink="http://www.w3.org/1999/xlink" width="25" height="25" viewBox="0.347 0.444 24.238 24.301"><path paint-order="stroke fill markers" fill-rule="evenodd" d="M3.104 22.165a9.107 9.107 0 0 1-.177-12.879L11.528.444l13.057 12.702-8.601 8.842a9.108 9.108 0 0 1-12.88.178z"/></svg></svg><svg width="25" height="26" xmlns="http://www.w3.org/2000/svg" xmlns:xlink="http://www.w3.org/1999/xlink" xmlns:svgjs="http://svgjs.com/svgjs" viewBox="0 0.461 25 25.078" fill="#00de9a" x="263" y="3047"><svg xmlns="http://www.w3.org/2000/svg" xmlns:xlink="http://www.w3.org/1999/xlink" width="25" height="26" viewBox="0.527 0.815 24.238 24.313"><path paint-order="stroke fill markers" fill-rule="evenodd" d="M13.597 25.129L.527 12.414l8.601-8.842a9.108 9.108 0 0 1 13.057 12.702l-8.6 8.842.012.013z"/></svg></svg><svg width="33" height="32" xmlns="http://www.w3.org/2000/svg" xmlns:xlink="http://www.w3.org/1999/xlink" xmlns:svgjs="http://svgjs.com/svgjs" viewBox="0.5 0 32 32" fill="#2361b5" x="194" y="3069"><svg xmlns="http://www.w3.org/2000/svg" xmlns:xlink="http://www.w3.org/1999/xlink" width="33" height="32" viewBox="0.223 0.013 31.95 31.95"><path paint-order="stroke fill markers" fill-rule="evenodd" d="M16.198 31.963C7.364 31.963.223 24.822.223 15.987.223 7.154 7.364.013 16.198.013s15.975 7.14 15.975 15.974c0 8.835-7.14 15.976-15.975 15.976z"/></svg></svg><svg width="33" height="33" xmlns="http://www.w3.org/2000/svg" xmlns:xlink="http://www.w3.org/1999/xlink" xmlns:svgjs="http://svgjs.com/svgjs" fill="#1894ff" x="192" y="3064"><svg xmlns="http://www.w3.org/2000/svg" xmlns:xlink="http://www.w3.org/1999/xlink" width="33" height="33" viewBox="0.448 0.853 31.95 31.95"><path paint-order="stroke fill markers" fill-rule="evenodd" d="M16.423 32.803C7.59 32.803.448 25.663.448 16.828.448 7.994 7.59.853 16.423.853s15.975 7.141 15.975 15.975-7.14 15.975-15.975 15.975z"/></svg></svg><svg width="20" height="12" xmlns="http://www.w3.org/2000/svg" xmlns:xlink="http://www.w3.org/1999/xlink" xmlns:svgjs="http://svgjs.com/svgjs" viewBox="0.001 0 19.998 12" fill="#fff" x="198" y="3074"><svg xmlns="http://www.w3.org/2000/svg" xmlns:xlink="http://www.w3.org/1999/xlink" width="20" height="12" viewBox="0.639 0.463 19.099 11.46"><path paint-order="stroke fill markers" fill-rule="evenodd" d="M18.007 5.95L4.56 11.723a2.869 2.869 0 0 1-2.259-5.272L15.748.697a2.859 2.859 0 1 1 2.26 5.253z"/></svg></svg><svg width="36" height="51" xmlns="http://www.w3.org/2000/svg" xmlns:xlink="http://www.w3.org/1999/xlink" xmlns:svgjs="http://svgjs.com/svgjs" viewBox="0 0.042 36 50.916" fill="#2361b5" x="242" y="3101"><svg xmlns="http://www.w3.org/2000/svg" xmlns:xlink="http://www.w3.org/1999/xlink" width="36" height="51" viewBox="0.526 0.656 35.272 49.886"><path paint-order="stroke fill markers" fill-rule="evenodd" d="M22.189 1.093l9.496 3.676a6.426 6.426 0 0 1 3.676 8.32l-12.905 33.34a6.426 6.426 0 0 1-8.321 3.676L4.639 46.43a6.426 6.426 0 0 1-3.677-8.32L13.868 4.77a6.426 6.426 0 0 1 8.32-3.677z"/></svg></svg><svg width="36" height="51" xmlns="http://www.w3.org/2000/svg" xmlns:xlink="http://www.w3.org/1999/xlink" xmlns:svgjs="http://svgjs.com/svgjs" viewBox="0 0.066 36 50.868" fill="#1894ff" x="247" y="3104"><svg xmlns="http://www.w3.org/2000/svg" xmlns:xlink="http://www.w3.org/1999/xlink" width="36" height="51" viewBox="0.152 0.14 35.4 50.021"><path paint-order="stroke fill markers" fill-rule="evenodd" d="M21.915.58l9.519 3.696a6.444 6.444 0 0 1 3.677 8.347L22.136 46.042a6.444 6.444 0 0 1-8.347 3.678L4.27 46.024a6.444 6.444 0 0 1-3.678-8.347L13.568 4.258A6.444 6.444 0 0 1 21.915.58z"/></svg></svg><svg width="18" height="10" xmlns="http://www.w3.org/2000/svg" xmlns:xlink="http://www.w3.org/1999/xlink" xmlns:svgjs="http://svgjs.com/svgjs" viewBox="0.182 0 17.635 10" fill="#fff" x="256" y="3124"><svg xmlns="http://www.w3.org/2000/svg" width="18" height="10" viewBox="0.421 0.369 16.861 9.561"><path paint-order="stroke fill markers" fill-rule="evenodd" d="M2.77.452l13.74 5.334c.624.243.932.943.69 1.566l-.701 1.806a1.209 1.209 0 0 1-1.566.69L1.193 4.514a1.21 1.21 0 0 1-.69-1.567l.702-1.805A1.209 1.209 0 0 1 2.77.452z"/></svg></svg></svg>