<svg width="160" height="160" xmlns="http://www.w3.org/2000/svg" xmlns:xlink="http://www.w3.org/1999/xlink" xmlns:svgjs="http://svgjs.com/svgjs" viewBox="859 1748 160 160"><svg width="160" height="160" xmlns="http://www.w3.org/2000/svg" xmlns:xlink="http://www.w3.org/1999/xlink" xmlns:svgjs="http://svgjs.com/svgjs" viewBox="859 1748 160 160" x="859" y="1748"><svg width="160" height="160" xmlns="http://www.w3.org/2000/svg" xmlns:xlink="http://www.w3.org/1999/xlink" xmlns:svgjs="http://svgjs.com/svgjs" fill="#fff" x="859" y="1748"><svg xmlns="http://www.w3.org/2000/svg" xmlns:xlink="http://www.w3.org/1999/xlink" width="160" height="160"><path paint-order="stroke fill markers" fill-rule="evenodd" d="M25 0h110c13.825 0 25 11.175 25 25v110c0 13.825-11.175 25-25 25H25c-13.825 0-25-11.175-25-25V25C0 11.175 11.175 0 25 0z"/></svg></svg></svg><svg width="66" height="63" xmlns="http://www.w3.org/2000/svg" xmlns:xlink="http://www.w3.org/1999/xlink" xmlns:svgjs="http://svgjs.com/svgjs" viewBox="906 1778 66 63" x="906" y="1778"><svg width="54" height="53" xmlns="http://www.w3.org/2000/svg" xmlns:xlink="http://www.w3.org/1999/xlink" xmlns:svgjs="http://svgjs.com/svgjs" viewBox="906 1778 54 53" x="906" y="1778"><svg width="54" height="43" xmlns="http://www.w3.org/2000/svg" xmlns:xlink="http://www.w3.org/1999/xlink" xmlns:svgjs="http://svgjs.com/svgjs" viewBox="906 1788 54 43" x="906" y="1788"><svg width="54" height="43" xmlns="http://www.w3.org/2000/svg" xmlns:xlink="http://www.w3.org/1999/xlink" xmlns:svgjs="http://svgjs.com/svgjs" viewBox="906 1788 54 43" x="906" y="1788"><svg width="54" height="43" xmlns="http://www.w3.org/2000/svg" xmlns:xlink="http://www.w3.org/1999/xlink" xmlns:svgjs="http://svgjs.com/svgjs" viewBox="0 0.28 54 42.439" fill="#1894ff" x="906" y="1788"><svg xmlns="http://www.w3.org/2000/svg" xmlns:xlink="http://www.w3.org/1999/xlink" width="54" height="43" viewBox="1 0.625 52.814 41.507"><path paint-order="stroke fill markers" fill-rule="evenodd" d="M1 .625h52.814v41.507H1V.625z"/></svg></svg></svg></svg><svg width="27" height="43" xmlns="http://www.w3.org/2000/svg" xmlns:xlink="http://www.w3.org/1999/xlink" xmlns:svgjs="http://svgjs.com/svgjs" viewBox="933 1788 27 43" x="933" y="1788"><svg width="27" height="43" xmlns="http://www.w3.org/2000/svg" xmlns:xlink="http://www.w3.org/1999/xlink" xmlns:svgjs="http://svgjs.com/svgjs" viewBox="933 1788 27 43" x="933" y="1788"><svg width="27" height="43" xmlns="http://www.w3.org/2000/svg" xmlns:xlink="http://www.w3.org/1999/xlink" xmlns:svgjs="http://svgjs.com/svgjs" viewBox="0 0.265 27 42.47" fill="#2361b5" x="933" y="1788"><svg xmlns="http://www.w3.org/2000/svg" xmlns:xlink="http://www.w3.org/1999/xlink" width="27" height="43" viewBox="0.426 0.625 26.388 41.507"><path paint-order="stroke fill markers" fill-rule="evenodd" d="M.426.625h26.388v41.507H.426V.625z"/></svg></svg></svg></svg><svg width="28" height="10" xmlns="http://www.w3.org/2000/svg" xmlns:xlink="http://www.w3.org/1999/xlink" xmlns:svgjs="http://svgjs.com/svgjs" viewBox="906 1782 28 10" x="906" y="1782"><svg width="28" height="10" xmlns="http://www.w3.org/2000/svg" xmlns:xlink="http://www.w3.org/1999/xlink" xmlns:svgjs="http://svgjs.com/svgjs" viewBox="906 1782 28 10" x="906" y="1782"><svg width="28" height="10" xmlns="http://www.w3.org/2000/svg" xmlns:xlink="http://www.w3.org/1999/xlink" xmlns:svgjs="http://svgjs.com/svgjs" viewBox="0.13 0 27.74 10" fill="#1894ff" x="906" y="1782"><svg xmlns="http://www.w3.org/2000/svg" xmlns:xlink="http://www.w3.org/1999/xlink" width="28" height="10" viewBox="1 0.232 26.465 9.541"><path paint-order="stroke fill markers" fill-rule="evenodd" d="M1 .232h26.465v9.54H1V.233z"/></svg></svg></svg></svg><svg width="27" height="10" xmlns="http://www.w3.org/2000/svg" xmlns:xlink="http://www.w3.org/1999/xlink" xmlns:svgjs="http://svgjs.com/svgjs" viewBox="933 1782 27 10" x="933" y="1782"><svg width="27" height="10" xmlns="http://www.w3.org/2000/svg" xmlns:xlink="http://www.w3.org/1999/xlink" xmlns:svgjs="http://svgjs.com/svgjs" viewBox="933 1782 27 10" x="933" y="1782"><svg width="27" height="10" xmlns="http://www.w3.org/2000/svg" xmlns:xlink="http://www.w3.org/1999/xlink" xmlns:svgjs="http://svgjs.com/svgjs" viewBox="0 0.119 27 9.762" fill="#2361b5" x="933" y="1782"><svg xmlns="http://www.w3.org/2000/svg" xmlns:xlink="http://www.w3.org/1999/xlink" width="27" height="10" viewBox="0.426 0.232 26.388 9.541"><path paint-order="stroke fill markers" fill-rule="evenodd" d="M.426.232h26.388v9.54H.426V.233z"/></svg></svg></svg></svg><svg width="42" height="30" xmlns="http://www.w3.org/2000/svg" xmlns:xlink="http://www.w3.org/1999/xlink" xmlns:svgjs="http://svgjs.com/svgjs" viewBox="912 1795 42 30" x="912" y="1795"><svg width="9" height="30" xmlns="http://www.w3.org/2000/svg" xmlns:xlink="http://www.w3.org/1999/xlink" xmlns:svgjs="http://svgjs.com/svgjs" viewBox="912 1795 9 30" x="912" y="1795"><svg width="9" height="9" xmlns="http://www.w3.org/2000/svg" xmlns:xlink="http://www.w3.org/1999/xlink" xmlns:svgjs="http://svgjs.com/svgjs" viewBox="912 1795 9 9" x="912" y="1795"><svg width="9" height="9" xmlns="http://www.w3.org/2000/svg" xmlns:xlink="http://www.w3.org/1999/xlink" xmlns:svgjs="http://svgjs.com/svgjs" viewBox="912 1795 9 9" x="912" y="1795"><svg width="9" height="9" xmlns="http://www.w3.org/2000/svg" xmlns:xlink="http://www.w3.org/1999/xlink" xmlns:svgjs="http://svgjs.com/svgjs" fill="#fff" x="912" y="1795"><svg xmlns="http://www.w3.org/2000/svg" xmlns:xlink="http://www.w3.org/1999/xlink" width="9" height="9" viewBox="0.965 0.893 7.279 7.279"><path paint-order="stroke fill markers" fill-rule="evenodd" d="M.965.893h7.279v7.279H.965V.892z"/></svg></svg></svg></svg><svg width="9" height="8" xmlns="http://www.w3.org/2000/svg" xmlns:xlink="http://www.w3.org/1999/xlink" xmlns:svgjs="http://svgjs.com/svgjs" viewBox="912 1817 9 8" x="912" y="1817"><svg width="9" height="8" xmlns="http://www.w3.org/2000/svg" xmlns:xlink="http://www.w3.org/1999/xlink" xmlns:svgjs="http://svgjs.com/svgjs" viewBox="912 1817 9 8" x="912" y="1817"><svg width="9" height="8" xmlns="http://www.w3.org/2000/svg" xmlns:xlink="http://www.w3.org/1999/xlink" xmlns:svgjs="http://svgjs.com/svgjs" viewBox="0.5 0 8 8" fill="#fff" x="912" y="1817"><svg xmlns="http://www.w3.org/2000/svg" xmlns:xlink="http://www.w3.org/1999/xlink" width="9" height="8" viewBox="0.965 0.43 7.279 7.279"><path paint-order="stroke fill markers" fill-rule="evenodd" d="M.965.43h7.279v7.28H.965V.43z"/></svg></svg></svg></svg><svg width="9" height="8" xmlns="http://www.w3.org/2000/svg" xmlns:xlink="http://www.w3.org/1999/xlink" xmlns:svgjs="http://svgjs.com/svgjs" viewBox="912 1806 9 8" x="912" y="1806"><svg width="9" height="8" xmlns="http://www.w3.org/2000/svg" xmlns:xlink="http://www.w3.org/1999/xlink" xmlns:svgjs="http://svgjs.com/svgjs" viewBox="912 1806 9 8" x="912" y="1806"><svg width="9" height="8" xmlns="http://www.w3.org/2000/svg" xmlns:xlink="http://www.w3.org/1999/xlink" xmlns:svgjs="http://svgjs.com/svgjs" viewBox="0.5 0 8 8" fill="#fff" x="912" y="1806"><svg xmlns="http://www.w3.org/2000/svg" xmlns:xlink="http://www.w3.org/1999/xlink" width="9" height="8" viewBox="0.965 0.662 7.279 7.279"><path paint-order="stroke fill markers" fill-rule="evenodd" d="M.965.662h7.279V7.94H.965V.66z"/></svg></svg></svg></svg></svg><svg width="8" height="30" xmlns="http://www.w3.org/2000/svg" xmlns:xlink="http://www.w3.org/1999/xlink" xmlns:svgjs="http://svgjs.com/svgjs" viewBox="924 1795 8 30" x="924" y="1795"><svg width="8" height="9" xmlns="http://www.w3.org/2000/svg" xmlns:xlink="http://www.w3.org/1999/xlink" xmlns:svgjs="http://svgjs.com/svgjs" viewBox="924 1795 8 9" x="924" y="1795"><svg width="8" height="9" xmlns="http://www.w3.org/2000/svg" xmlns:xlink="http://www.w3.org/1999/xlink" xmlns:svgjs="http://svgjs.com/svgjs" viewBox="924 1795 8 9" x="924" y="1795"><svg width="8" height="9" xmlns="http://www.w3.org/2000/svg" xmlns:xlink="http://www.w3.org/1999/xlink" xmlns:svgjs="http://svgjs.com/svgjs" viewBox="0 0.5 8 8" fill="#fff" x="924" y="1795"><svg xmlns="http://www.w3.org/2000/svg" xmlns:xlink="http://www.w3.org/1999/xlink" width="8" height="9" viewBox="0.167 0.893 7.279 7.279"><path paint-order="stroke fill markers" fill-rule="evenodd" d="M.167.893h7.279v7.279H.166V.892z"/></svg></svg></svg></svg><svg width="8" height="8" xmlns="http://www.w3.org/2000/svg" xmlns:xlink="http://www.w3.org/1999/xlink" xmlns:svgjs="http://svgjs.com/svgjs" viewBox="924 1817 8 8" x="924" y="1817"><svg width="8" height="8" xmlns="http://www.w3.org/2000/svg" xmlns:xlink="http://www.w3.org/1999/xlink" xmlns:svgjs="http://svgjs.com/svgjs" viewBox="924 1817 8 8" x="924" y="1817"><svg width="8" height="8" xmlns="http://www.w3.org/2000/svg" xmlns:xlink="http://www.w3.org/1999/xlink" xmlns:svgjs="http://svgjs.com/svgjs" fill="#fff" x="924" y="1817"><svg xmlns="http://www.w3.org/2000/svg" xmlns:xlink="http://www.w3.org/1999/xlink" width="8" height="8" viewBox="0.167 0.43 7.279 7.279"><path paint-order="stroke fill markers" fill-rule="evenodd" d="M.167.43h7.279v7.28H.166V.43z"/></svg></svg></svg></svg><svg width="8" height="8" xmlns="http://www.w3.org/2000/svg" xmlns:xlink="http://www.w3.org/1999/xlink" xmlns:svgjs="http://svgjs.com/svgjs" viewBox="924 1806 8 8" x="924" y="1806"><svg width="8" height="8" xmlns="http://www.w3.org/2000/svg" xmlns:xlink="http://www.w3.org/1999/xlink" xmlns:svgjs="http://svgjs.com/svgjs" viewBox="924 1806 8 8" x="924" y="1806"><svg width="8" height="8" xmlns="http://www.w3.org/2000/svg" xmlns:xlink="http://www.w3.org/1999/xlink" xmlns:svgjs="http://svgjs.com/svgjs" fill="#fff" x="924" y="1806"><svg xmlns="http://www.w3.org/2000/svg" xmlns:xlink="http://www.w3.org/1999/xlink" width="8" height="8" viewBox="0.167 0.662 7.279 7.279"><path paint-order="stroke fill markers" fill-rule="evenodd" d="M.167.662h7.279V7.94H.166V.66z"/></svg></svg></svg></svg></svg><svg width="8" height="30" xmlns="http://www.w3.org/2000/svg" xmlns:xlink="http://www.w3.org/1999/xlink" xmlns:svgjs="http://svgjs.com/svgjs" viewBox="935 1795 8 30" x="935" y="1795"><svg width="8" height="9" xmlns="http://www.w3.org/2000/svg" xmlns:xlink="http://www.w3.org/1999/xlink" xmlns:svgjs="http://svgjs.com/svgjs" viewBox="935 1795 8 9" x="935" y="1795"><svg width="8" height="9" xmlns="http://www.w3.org/2000/svg" xmlns:xlink="http://www.w3.org/1999/xlink" xmlns:svgjs="http://svgjs.com/svgjs" viewBox="935 1795 8 9" x="935" y="1795"><svg width="8" height="9" xmlns="http://www.w3.org/2000/svg" xmlns:xlink="http://www.w3.org/1999/xlink" xmlns:svgjs="http://svgjs.com/svgjs" viewBox="0 0.5 8 8" fill="#fff" x="935" y="1795"><svg xmlns="http://www.w3.org/2000/svg" xmlns:xlink="http://www.w3.org/1999/xlink" width="8" height="9" viewBox="0.368 0.893 7.279 7.279"><path paint-order="stroke fill markers" fill-rule="evenodd" d="M.368.893h7.28v7.279H.367V.892z"/></svg></svg></svg></svg><svg width="8" height="8" xmlns="http://www.w3.org/2000/svg" xmlns:xlink="http://www.w3.org/1999/xlink" xmlns:svgjs="http://svgjs.com/svgjs" viewBox="935 1817 8 8" x="935" y="1817"><svg width="8" height="8" xmlns="http://www.w3.org/2000/svg" xmlns:xlink="http://www.w3.org/1999/xlink" xmlns:svgjs="http://svgjs.com/svgjs" viewBox="935 1817 8 8" x="935" y="1817"><svg width="8" height="8" xmlns="http://www.w3.org/2000/svg" xmlns:xlink="http://www.w3.org/1999/xlink" xmlns:svgjs="http://svgjs.com/svgjs" fill="#fff" x="935" y="1817"><svg xmlns="http://www.w3.org/2000/svg" xmlns:xlink="http://www.w3.org/1999/xlink" width="8" height="8" viewBox="0.368 0.43 7.279 7.279"><path paint-order="stroke fill markers" fill-rule="evenodd" d="M.368.43h7.28v7.28H.367V.43z"/></svg></svg></svg></svg><svg width="8" height="8" xmlns="http://www.w3.org/2000/svg" xmlns:xlink="http://www.w3.org/1999/xlink" xmlns:svgjs="http://svgjs.com/svgjs" viewBox="935 1806 8 8" x="935" y="1806"><svg width="8" height="8" xmlns="http://www.w3.org/2000/svg" xmlns:xlink="http://www.w3.org/1999/xlink" xmlns:svgjs="http://svgjs.com/svgjs" viewBox="935 1806 8 8" x="935" y="1806"><svg width="8" height="8" xmlns="http://www.w3.org/2000/svg" xmlns:xlink="http://www.w3.org/1999/xlink" xmlns:svgjs="http://svgjs.com/svgjs" fill="#fff" x="935" y="1806"><svg xmlns="http://www.w3.org/2000/svg" xmlns:xlink="http://www.w3.org/1999/xlink" width="8" height="8" viewBox="0.368 0.662 7.279 7.279"><path paint-order="stroke fill markers" fill-rule="evenodd" d="M.368.662h7.28V7.94H.367V.66z"/></svg></svg></svg></svg></svg><svg width="8" height="30" xmlns="http://www.w3.org/2000/svg" xmlns:xlink="http://www.w3.org/1999/xlink" xmlns:svgjs="http://svgjs.com/svgjs" viewBox="946 1795 8 30" x="946" y="1795"><svg width="8" height="9" xmlns="http://www.w3.org/2000/svg" xmlns:xlink="http://www.w3.org/1999/xlink" xmlns:svgjs="http://svgjs.com/svgjs" viewBox="946 1795 8 9" x="946" y="1795"><svg width="8" height="9" xmlns="http://www.w3.org/2000/svg" xmlns:xlink="http://www.w3.org/1999/xlink" xmlns:svgjs="http://svgjs.com/svgjs" viewBox="946 1795 8 9" x="946" y="1795"><svg width="8" height="9" xmlns="http://www.w3.org/2000/svg" xmlns:xlink="http://www.w3.org/1999/xlink" xmlns:svgjs="http://svgjs.com/svgjs" viewBox="0 0.5 8 8" fill="#fff" x="946" y="1795"><svg xmlns="http://www.w3.org/2000/svg" xmlns:xlink="http://www.w3.org/1999/xlink" width="8" height="9" viewBox="0.57 0.893 7.279 7.279"><path paint-order="stroke fill markers" fill-rule="evenodd" d="M.57.893h7.279v7.279H.569V.892z"/></svg></svg></svg></svg><svg width="8" height="8" xmlns="http://www.w3.org/2000/svg" xmlns:xlink="http://www.w3.org/1999/xlink" xmlns:svgjs="http://svgjs.com/svgjs" viewBox="946 1817 8 8" x="946" y="1817"><svg width="8" height="8" xmlns="http://www.w3.org/2000/svg" xmlns:xlink="http://www.w3.org/1999/xlink" xmlns:svgjs="http://svgjs.com/svgjs" viewBox="946 1817 8 8" x="946" y="1817"><svg width="8" height="8" xmlns="http://www.w3.org/2000/svg" xmlns:xlink="http://www.w3.org/1999/xlink" xmlns:svgjs="http://svgjs.com/svgjs" fill="#fff" x="946" y="1817"><svg xmlns="http://www.w3.org/2000/svg" xmlns:xlink="http://www.w3.org/1999/xlink" width="8" height="8" viewBox="0.57 0.43 7.279 7.279"><path paint-order="stroke fill markers" fill-rule="evenodd" d="M.57.43h7.279v7.28H.569V.43z"/></svg></svg></svg></svg><svg width="8" height="8" xmlns="http://www.w3.org/2000/svg" xmlns:xlink="http://www.w3.org/1999/xlink" xmlns:svgjs="http://svgjs.com/svgjs" viewBox="946 1806 8 8" x="946" y="1806"><svg width="8" height="8" xmlns="http://www.w3.org/2000/svg" xmlns:xlink="http://www.w3.org/1999/xlink" xmlns:svgjs="http://svgjs.com/svgjs" viewBox="946 1806 8 8" x="946" y="1806"><svg width="8" height="8" xmlns="http://www.w3.org/2000/svg" xmlns:xlink="http://www.w3.org/1999/xlink" xmlns:svgjs="http://svgjs.com/svgjs" fill="#fff" x="946" y="1806"><svg xmlns="http://www.w3.org/2000/svg" xmlns:xlink="http://www.w3.org/1999/xlink" width="8" height="8" viewBox="0.57 0.662 7.279 7.279"><path paint-order="stroke fill markers" fill-rule="evenodd" d="M.57.662h7.279V7.94H.569V.66z"/></svg></svg></svg></svg></svg></svg><svg width="8" height="10" xmlns="http://www.w3.org/2000/svg" xmlns:xlink="http://www.w3.org/1999/xlink" xmlns:svgjs="http://svgjs.com/svgjs" viewBox="912 1778 8 10" x="912" y="1778"><svg width="8" height="10" xmlns="http://www.w3.org/2000/svg" xmlns:xlink="http://www.w3.org/1999/xlink" xmlns:svgjs="http://svgjs.com/svgjs" viewBox="912 1778 8 10" x="912" y="1778"><svg width="8" height="10" xmlns="http://www.w3.org/2000/svg" xmlns:xlink="http://www.w3.org/1999/xlink" xmlns:svgjs="http://svgjs.com/svgjs" viewBox="0.536 0 6.927 10" fill="#2361b5" x="912" y="1778"><svg xmlns="http://www.w3.org/2000/svg" xmlns:xlink="http://www.w3.org/1999/xlink" width="8" height="10" viewBox="0.965 0 6.236 9.002"><path paint-order="stroke fill markers" fill-rule="evenodd" d="M.965 0h6.236v9.002H.965V0z"/></svg></svg></svg></svg><svg width="7" height="10" xmlns="http://www.w3.org/2000/svg" xmlns:xlink="http://www.w3.org/1999/xlink" xmlns:svgjs="http://svgjs.com/svgjs" viewBox="947 1778 7 10" x="947" y="1778"><svg width="7" height="10" xmlns="http://www.w3.org/2000/svg" xmlns:xlink="http://www.w3.org/1999/xlink" xmlns:svgjs="http://svgjs.com/svgjs" viewBox="947 1778 7 10" x="947" y="1778"><svg width="7" height="10" xmlns="http://www.w3.org/2000/svg" xmlns:xlink="http://www.w3.org/1999/xlink" xmlns:svgjs="http://svgjs.com/svgjs" viewBox="0.036 0 6.927 10" fill="#1894ff" x="947" y="1778"><svg xmlns="http://www.w3.org/2000/svg" xmlns:xlink="http://www.w3.org/1999/xlink" width="7" height="10" viewBox="0.612 0 6.236 9.002"><path paint-order="stroke fill markers" fill-rule="evenodd" d="M.612 0H6.85v9.002H.612V0z"/></svg></svg></svg></svg><svg width="7" height="10" xmlns="http://www.w3.org/2000/svg" xmlns:xlink="http://www.w3.org/1999/xlink" xmlns:svgjs="http://svgjs.com/svgjs" viewBox="930 1778 7 10" x="930" y="1778"><svg width="7" height="10" xmlns="http://www.w3.org/2000/svg" xmlns:xlink="http://www.w3.org/1999/xlink" xmlns:svgjs="http://svgjs.com/svgjs" viewBox="930 1778 7 10" x="930" y="1778"><svg width="7" height="10" xmlns="http://www.w3.org/2000/svg" xmlns:xlink="http://www.w3.org/1999/xlink" xmlns:svgjs="http://svgjs.com/svgjs" viewBox="0.036 0 6.927 10" fill="#2361b5" x="930" y="1778"><svg xmlns="http://www.w3.org/2000/svg" xmlns:xlink="http://www.w3.org/1999/xlink" width="7" height="10" viewBox="0.289 0 6.236 9.002"><path paint-order="stroke fill markers" fill-rule="evenodd" d="M.289 0h6.236v9.002H.289V0z"/></svg></svg></svg></svg><svg width="4" height="10" xmlns="http://www.w3.org/2000/svg" xmlns:xlink="http://www.w3.org/1999/xlink" xmlns:svgjs="http://svgjs.com/svgjs" viewBox="933 1778 4 10" x="933" y="1778"><svg width="4" height="10" xmlns="http://www.w3.org/2000/svg" xmlns:xlink="http://www.w3.org/1999/xlink" xmlns:svgjs="http://svgjs.com/svgjs" viewBox="933 1778 4 10" x="933" y="1778"><svg width="4" height="10" xmlns="http://www.w3.org/2000/svg" xmlns:xlink="http://www.w3.org/1999/xlink" xmlns:svgjs="http://svgjs.com/svgjs" viewBox="0.279 0 3.442 10" fill="#1894ff" x="933" y="1778"><svg xmlns="http://www.w3.org/2000/svg" xmlns:xlink="http://www.w3.org/1999/xlink" width="4" height="10" viewBox="0.426 0 3.099 9.003"><path paint-order="stroke fill markers" fill-rule="evenodd" d="M.426 0h3.1v9.003h-3.1V0z"/></svg></svg></svg></svg></svg><svg width="25" height="24" xmlns="http://www.w3.org/2000/svg" xmlns:xlink="http://www.w3.org/1999/xlink" xmlns:svgjs="http://svgjs.com/svgjs" viewBox="947 1817 25 24" x="947" y="1817"><svg width="19" height="24" xmlns="http://www.w3.org/2000/svg" xmlns:xlink="http://www.w3.org/1999/xlink" xmlns:svgjs="http://svgjs.com/svgjs" viewBox="0.5 0 18 24" fill="#2361b5" x="953" y="1817"><svg xmlns="http://www.w3.org/2000/svg" xmlns:xlink="http://www.w3.org/1999/xlink" width="19" height="24" viewBox="0.784 0.724 17.386 23.181"><path paint-order="stroke fill markers" fill-rule="evenodd" d="M6.58.724L.783 12.314 6.58 23.906c6.402 0 11.59-5.189 11.59-11.59 0-6.402-5.188-11.59-11.59-11.59z"/></svg></svg><svg width="13" height="24" xmlns="http://www.w3.org/2000/svg" xmlns:xlink="http://www.w3.org/1999/xlink" xmlns:svgjs="http://svgjs.com/svgjs" viewBox="0.5 0 12 24" fill="#1894ff" x="947" y="1817"><svg xmlns="http://www.w3.org/2000/svg" xmlns:xlink="http://www.w3.org/1999/xlink" width="13" height="24" viewBox="0.989 0.724 11.59 23.181"><path paint-order="stroke fill markers" fill-rule="evenodd" d="M.99 12.315c0 6.401 5.188 11.59 11.59 11.59V.725C6.177.724.99 5.912.99 12.314z"/></svg></svg><svg width="14" height="19" xmlns="http://www.w3.org/2000/svg" xmlns:xlink="http://www.w3.org/1999/xlink" xmlns:svgjs="http://svgjs.com/svgjs" viewBox="0 0.167 14 18.667" fill="#fff" x="955" y="1820"><svg xmlns="http://www.w3.org/2000/svg" xmlns:xlink="http://www.w3.org/1999/xlink" width="14" height="19" viewBox="0.143 0.441 13.311 17.747"><path paint-order="stroke fill markers" fill-rule="evenodd" d="M4.58.44L.142 9.316l4.436 8.873a8.874 8.874 0 0 0 0-17.747z"/></svg></svg><svg width="10" height="19" xmlns="http://www.w3.org/2000/svg" xmlns:xlink="http://www.w3.org/1999/xlink" xmlns:svgjs="http://svgjs.com/svgjs" viewBox="0.25 0 9.5 19" fill="#fff" x="950" y="1820"><svg xmlns="http://www.w3.org/2000/svg" xmlns:xlink="http://www.w3.org/1999/xlink" width="10" height="19" viewBox="0.706 0.441 8.874 17.747"><path paint-order="stroke fill markers" fill-rule="evenodd" d="M.706 9.315c0 4.9 3.972 8.873 8.873 8.873V.441A8.874 8.874 0 0 0 .706 9.315z"/></svg></svg><svg width="4" height="4" xmlns="http://www.w3.org/2000/svg" xmlns:xlink="http://www.w3.org/1999/xlink" xmlns:svgjs="http://svgjs.com/svgjs" viewBox="0.038 0 3.924 4" fill="#00de9a" x="958" y="1828"><svg xmlns="http://www.w3.org/2000/svg" xmlns:xlink="http://www.w3.org/1999/xlink" width="4" height="4" viewBox="0.674 0.354 2.826 2.881"><path paint-order="stroke fill markers" fill-rule="evenodd" d="M3.5 2.275L1.58.355H.673l.905 1.92.96.96.961-.96z"/></svg></svg><svg width="6" height="7" xmlns="http://www.w3.org/2000/svg" xmlns:xlink="http://www.w3.org/1999/xlink" xmlns:svgjs="http://svgjs.com/svgjs" viewBox="0.082 0 5.837 7" fill="#00de9a" x="954" y="1824"><svg xmlns="http://www.w3.org/2000/svg" xmlns:xlink="http://www.w3.org/1999/xlink" width="6" height="7" viewBox="0.761 0.497 4.818 5.778"><path paint-order="stroke fill markers" fill-rule="evenodd" d="M1.722.497l-.96.96 4.817 4.818V4.354L1.722.497z"/></svg></svg><svg width="7" height="7" xmlns="http://www.w3.org/2000/svg" xmlns:xlink="http://www.w3.org/1999/xlink" xmlns:svgjs="http://svgjs.com/svgjs" viewBox="0.033 0 6.934 7" fill="#00de9a" x="958" y="1824"><svg xmlns="http://www.w3.org/2000/svg" xmlns:xlink="http://www.w3.org/1999/xlink" width="7" height="7" viewBox="0.674 0.497 5.724 5.778"><path paint-order="stroke fill markers" fill-rule="evenodd" d="M5.44.497L1.577 4.359.674 6.275h.903l4.82-4.82L5.44.496z"/></svg></svg><svg width="3" height="4" xmlns="http://www.w3.org/2000/svg" xmlns:xlink="http://www.w3.org/1999/xlink" xmlns:svgjs="http://svgjs.com/svgjs" viewBox="0.167 0 2.667 4" fill="#00de9a" x="957" y="1828"><svg xmlns="http://www.w3.org/2000/svg" xmlns:xlink="http://www.w3.org/1999/xlink" width="3" height="4" viewBox="0.659 0.354 1.921 2.881"><path paint-order="stroke fill markers" fill-rule="evenodd" d="M.659 2.275l.96.96.96-.96V.355L.66 2.274z"/></svg></svg><svg width="2" height="3" xmlns="http://www.w3.org/2000/svg" xmlns:xlink="http://www.w3.org/1999/xlink" xmlns:svgjs="http://svgjs.com/svgjs" viewBox="0 0.3 2 2.4" fill="#fff" x="959" y="1821"><svg xmlns="http://www.w3.org/2000/svg" xmlns:xlink="http://www.w3.org/1999/xlink" width="2" height="3" viewBox="0.127 0.799 1.132 1.358"><path paint-order="stroke fill markers" fill-rule="evenodd" d="M1.259.799h-.68l-.452.68.452.678h.68V.8z"/></svg></svg><svg width="2" height="3" xmlns="http://www.w3.org/2000/svg" xmlns:xlink="http://www.w3.org/1999/xlink" xmlns:svgjs="http://svgjs.com/svgjs" viewBox="0.25 0 1.5 3" fill="#fff" x="958" y="1821"><svg xmlns="http://www.w3.org/2000/svg" xmlns:xlink="http://www.w3.org/1999/xlink" width="2" height="3" viewBox="0.9 0.799 0.679 1.358"><path paint-order="stroke fill markers" fill-rule="evenodd" d="M.9.799h.68v1.358H.9V.8z"/></svg></svg><svg width="2" height="2" xmlns="http://www.w3.org/2000/svg" xmlns:xlink="http://www.w3.org/1999/xlink" xmlns:svgjs="http://svgjs.com/svgjs" viewBox="0.167 0 1.666 2" fill="#fff" x="959" y="1835"><svg xmlns="http://www.w3.org/2000/svg" xmlns:xlink="http://www.w3.org/1999/xlink" width="2" height="2" viewBox="0.127 0.472 1.132 1.359"><path paint-order="stroke fill markers" fill-rule="evenodd" d="M1.259.472h-.68l-.452.679.452.68h.68V.47z"/></svg></svg><svg width="2" height="2" xmlns="http://www.w3.org/2000/svg" xmlns:xlink="http://www.w3.org/1999/xlink" xmlns:svgjs="http://svgjs.com/svgjs" viewBox="0.5 0 1 2" fill="#fff" x="958" y="1835"><svg xmlns="http://www.w3.org/2000/svg" xmlns:xlink="http://www.w3.org/1999/xlink" width="2" height="2" viewBox="0.9 0.472 0.679 1.359"><path paint-order="stroke fill markers" fill-rule="evenodd" d="M.9.472h.68V1.83H.9V.472z"/></svg></svg><svg width="2" height="2" xmlns="http://www.w3.org/2000/svg" xmlns:xlink="http://www.w3.org/1999/xlink" xmlns:svgjs="http://svgjs.com/svgjs" fill="#fff" x="952" y="1828"><svg xmlns="http://www.w3.org/2000/svg" xmlns:xlink="http://www.w3.org/1999/xlink" width="2" height="2" viewBox="0.064 0.635 1.358 1.358"><path paint-order="stroke fill markers" fill-rule="evenodd" d="M.064 1.993V.635h1.358v1.358H.064z"/></svg></svg><svg width="3" height="2" xmlns="http://www.w3.org/2000/svg" xmlns:xlink="http://www.w3.org/1999/xlink" xmlns:svgjs="http://svgjs.com/svgjs" viewBox="0.5 0 2 2" fill="#fff" x="965" y="1828"><svg xmlns="http://www.w3.org/2000/svg" width="3" height="2" viewBox="0.737 0.635 1.358 1.358"><path paint-order="stroke fill markers" fill-rule="evenodd" d="M.737 1.993V.635h1.358v1.358H.737z"/></svg></svg></svg></svg></svg>