<svg width="81" height="80" xmlns="http://www.w3.org/2000/svg" xmlns:xlink="http://www.w3.org/1999/xlink" xmlns:svgjs="http://svgjs.com/svgjs" viewBox="246 1083 81 80"><svg width="81" height="80" xmlns="http://www.w3.org/2000/svg" xmlns:xlink="http://www.w3.org/1999/xlink" xmlns:svgjs="http://svgjs.com/svgjs" viewBox="0.5 0 80 80" fill="#fff" x="246" y="1083"><svg xmlns="http://www.w3.org/2000/svg" xmlns:xlink="http://www.w3.org/1999/xlink" width="81" height="80" viewBox="0.5 0 80 80"><path paint-order="stroke fill markers" fill-rule="evenodd" d="M20.5 0h40c11.06 0 20 8.94 20 20v40c0 11.06-8.94 20-20 20h-40C9.44 80 .5 71.06.5 60V20c0-11.06 8.94-20 20-20z"/></svg></svg><svg width="37" height="37" xmlns="http://www.w3.org/2000/svg" xmlns:xlink="http://www.w3.org/1999/xlink" xmlns:svgjs="http://svgjs.com/svgjs" viewBox="268 1105 37 37" x="268" y="1105"><svg width="37" height="37" xmlns="http://www.w3.org/2000/svg" xmlns:xlink="http://www.w3.org/1999/xlink" xmlns:svgjs="http://svgjs.com/svgjs" fill="#1894ff" x="268" y="1105"><svg xmlns="http://www.w3.org/2000/svg" xmlns:xlink="http://www.w3.org/1999/xlink" width="37" height="37" viewBox="0.5 0 36 36"><path paint-order="stroke fill markers" fill-rule="evenodd" d="M24.075 26.158a14.548 14.548 0 0 1-8.961 3.07C7.044 29.228.5 22.684.5 14.614S7.043 0 15.114 0c8.07 0 14.614 6.543 14.614 14.614a14.55 14.55 0 0 1-3.07 8.961l9.842 9.84L33.915 36l-9.84-9.842z"/></svg></svg><svg width="23" height="23" xmlns="http://www.w3.org/2000/svg" xmlns:xlink="http://www.w3.org/1999/xlink" xmlns:svgjs="http://svgjs.com/svgjs" fill="#fff" x="272" y="1108"><svg xmlns="http://www.w3.org/2000/svg" width="23" height="23" viewBox="0.153 0.653 21.921 21.921"><path paint-order="stroke fill markers" fill-rule="evenodd" d="M11.114 22.574c6.053 0 10.96-4.907 10.96-10.96 0-6.054-4.907-10.96-10.96-10.96C5.06.653.154 5.56.154 11.613c0 6.053 4.906 10.96 10.96 10.96z"/></svg></svg></svg></svg>