<svg width="160" height="160" xmlns="http://www.w3.org/2000/svg" xmlns:xlink="http://www.w3.org/1999/xlink" xmlns:svgjs="http://svgjs.com/svgjs" viewBox="864 1534 160 160"><svg width="160" height="160" xmlns="http://www.w3.org/2000/svg" xmlns:xlink="http://www.w3.org/1999/xlink" xmlns:svgjs="http://svgjs.com/svgjs" viewBox="864 1534 160 160" x="864" y="1534"><svg width="160" height="160" xmlns="http://www.w3.org/2000/svg" xmlns:xlink="http://www.w3.org/1999/xlink" xmlns:svgjs="http://svgjs.com/svgjs" viewBox="864 1534 160 160" x="864" y="1534"><svg width="160" height="160" xmlns="http://www.w3.org/2000/svg" xmlns:xlink="http://www.w3.org/1999/xlink" xmlns:svgjs="http://svgjs.com/svgjs" fill="#fff" x="864" y="1534"><svg xmlns="http://www.w3.org/2000/svg" xmlns:xlink="http://www.w3.org/1999/xlink" width="160" height="160"><path paint-order="stroke fill markers" fill-rule="evenodd" d="M25 0h110c13.825 0 25 11.175 25 25v110c0 13.825-11.175 25-25 25H25c-13.825 0-25-11.175-25-25V25C0 11.175 11.175 0 25 0z"/></svg></svg></svg></svg><svg width="49" height="70" xmlns="http://www.w3.org/2000/svg" xmlns:xlink="http://www.w3.org/1999/xlink" xmlns:svgjs="http://svgjs.com/svgjs" viewBox="920 1560 49 70" x="920" y="1560"><svg width="41" height="70" xmlns="http://www.w3.org/2000/svg" xmlns:xlink="http://www.w3.org/1999/xlink" xmlns:svgjs="http://svgjs.com/svgjs" viewBox="0.5 0 40 70" fill="#2361b5" x="924" y="1560"><svg xmlns="http://www.w3.org/2000/svg" xmlns:xlink="http://www.w3.org/1999/xlink" width="41" height="70" viewBox="0.286 0 40 70"><path paint-order="stroke fill markers" fill-rule="evenodd" d="M.286 0h40v70h-40V0z"/></svg></svg><svg width="33" height="50" xmlns="http://www.w3.org/2000/svg" xmlns:xlink="http://www.w3.org/1999/xlink" xmlns:svgjs="http://svgjs.com/svgjs" viewBox="0.558 0 31.884 50" fill="#fff" x="928" y="1570"><svg xmlns="http://www.w3.org/2000/svg" xmlns:xlink="http://www.w3.org/1999/xlink" width="33" height="50" viewBox="0.571 0.714 31.429 49.286"><path paint-order="stroke fill markers" fill-rule="evenodd" d="M.571.714h31.43V50H.57V.714z"/></svg></svg><svg width="21" height="5" xmlns="http://www.w3.org/2000/svg" xmlns:xlink="http://www.w3.org/1999/xlink" xmlns:svgjs="http://svgjs.com/svgjs" viewBox="934 1607 21 5" x="934" y="1607"><svg width="5" height="5" xmlns="http://www.w3.org/2000/svg" xmlns:xlink="http://www.w3.org/1999/xlink" xmlns:svgjs="http://svgjs.com/svgjs" fill="#00de9a" x="934" y="1607"><svg xmlns="http://www.w3.org/2000/svg" xmlns:xlink="http://www.w3.org/1999/xlink" width="5" height="5" viewBox="0.286 0.143 4.286 4.286"><path paint-order="stroke fill markers" fill-rule="evenodd" d="M.286.143H4.57v4.285H.286V.143z"/></svg></svg><svg width="14" height="5" xmlns="http://www.w3.org/2000/svg" xmlns:xlink="http://www.w3.org/1999/xlink" xmlns:svgjs="http://svgjs.com/svgjs" viewBox="0 0.167 14 4.667" fill="#00de9a" x="941" y="1607"><svg xmlns="http://www.w3.org/2000/svg" xmlns:xlink="http://www.w3.org/1999/xlink" width="14" height="5" viewBox="0.429 0.143 12.857 4.286"><path paint-order="stroke fill markers" fill-rule="evenodd" d="M.429.143h12.857v4.285H.429V.143z"/></svg></svg></svg><svg width="33" height="24" xmlns="http://www.w3.org/2000/svg" xmlns:xlink="http://www.w3.org/1999/xlink" xmlns:svgjs="http://svgjs.com/svgjs" viewBox="920 1569 33 24" x="920" y="1569"><svg width="17" height="10" xmlns="http://www.w3.org/2000/svg" xmlns:xlink="http://www.w3.org/1999/xlink" xmlns:svgjs="http://svgjs.com/svgjs" viewBox="0 0.75 17 8.5" fill="#2361b5" x="936" y="1583"><svg xmlns="http://www.w3.org/2000/svg" xmlns:xlink="http://www.w3.org/1999/xlink" width="17" height="10" viewBox="0.19 0.952 16.191 8.096"><path paint-order="stroke fill markers" fill-rule="evenodd" d="M16.381.952a8.095 8.095 0 1 1-16.19 0h16.19"/></svg></svg><svg width="20" height="24" xmlns="http://www.w3.org/2000/svg" xmlns:xlink="http://www.w3.org/1999/xlink" xmlns:svgjs="http://svgjs.com/svgjs" viewBox="0 0.333 20 23.333" fill="#1894ff" x="920" y="1569"><svg xmlns="http://www.w3.org/2000/svg" xmlns:xlink="http://www.w3.org/1999/xlink" width="20" height="24" viewBox="0 0.381 19.428 22.667"><path paint-order="stroke fill markers" fill-rule="evenodd" d="M16.19 14.952L19.43.38H6.476L0 14.95a8.095 8.095 0 1 0 16.19 0z"/></svg></svg></svg><svg width="17" height="10" xmlns="http://www.w3.org/2000/svg" xmlns:xlink="http://www.w3.org/1999/xlink" xmlns:svgjs="http://svgjs.com/svgjs" viewBox="0 0.75 17 8.5" fill="#2361b5" x="920" y="1583"><svg xmlns="http://www.w3.org/2000/svg" xmlns:xlink="http://www.w3.org/1999/xlink" width="17" height="10" viewBox="0 0.952 16.19 8.096"><path paint-order="stroke fill markers" fill-rule="evenodd" d="M16.19.952H0a8.095 8.095 0 1 0 16.19 0z"/></svg></svg><svg width="20" height="24" xmlns="http://www.w3.org/2000/svg" xmlns:xlink="http://www.w3.org/1999/xlink" xmlns:svgjs="http://svgjs.com/svgjs" viewBox="0 0.333 20 23.333" fill="#1894ff" x="949" y="1569"><svg xmlns="http://www.w3.org/2000/svg" xmlns:xlink="http://www.w3.org/1999/xlink" width="20" height="24" viewBox="0.143 0.381 19.429 22.667"><path paint-order="stroke fill markers" fill-rule="evenodd" d="M3.38 14.952L.144.38h12.952l6.476 14.57a8.095 8.095 0 1 1-16.19 0z"/></svg></svg><svg width="17" height="10" xmlns="http://www.w3.org/2000/svg" xmlns:xlink="http://www.w3.org/1999/xlink" xmlns:svgjs="http://svgjs.com/svgjs" viewBox="0 0.75 17 8.5" fill="#2361b5" x="952" y="1583"><svg xmlns="http://www.w3.org/2000/svg" xmlns:xlink="http://www.w3.org/1999/xlink" width="17" height="10" viewBox="0.381 0.952 16.19 8.096"><path paint-order="stroke fill markers" fill-rule="evenodd" d="M.381.952h16.19a8.095 8.095 0 1 1-16.19 0z"/></svg></svg><svg width="17" height="15" xmlns="http://www.w3.org/2000/svg" xmlns:xlink="http://www.w3.org/1999/xlink" xmlns:svgjs="http://svgjs.com/svgjs" viewBox="0.166 0 16.667 15" fill="#fff" x="936" y="1569"><svg xmlns="http://www.w3.org/2000/svg" width="17" height="15" viewBox="0.19 0.381 16.191 14.571"><path paint-order="stroke fill markers" fill-rule="evenodd" d="M.19 14.952L3.43.38h9.714l3.238 14.57H.191"/></svg></svg></svg></svg>