<svg width="103" height="161" xmlns="http://www.w3.org/2000/svg" xmlns:xlink="http://www.w3.org/1999/xlink" xmlns:svgjs="http://svgjs.com/svgjs" viewBox="311 1209 103 161"><svg width="91" height="161" xmlns="http://www.w3.org/2000/svg" xmlns:xlink="http://www.w3.org/1999/xlink" xmlns:svgjs="http://svgjs.com/svgjs" viewBox="0.615 0 89.77 161" fill="#1894ff" x="317" y="1209"><svg xmlns="http://www.w3.org/2000/svg" xmlns:xlink="http://www.w3.org/1999/xlink" width="91" height="161" viewBox="0.326 0 89.683 160.844"><path paint-order="stroke fill markers" fill-rule="evenodd" d="M.326 0h89.682v160.844H.326V0z"/></svg></svg><svg width="75" height="114" xmlns="http://www.w3.org/2000/svg" xmlns:xlink="http://www.w3.org/1999/xlink" xmlns:svgjs="http://svgjs.com/svgjs" viewBox="0.119 0 74.763 114" fill="#fff" x="324" y="1227"><svg xmlns="http://www.w3.org/2000/svg" xmlns:xlink="http://www.w3.org/1999/xlink" width="75" height="114" viewBox="0.743 0.333 74.234 113.194"><path paint-order="stroke fill markers" fill-rule="evenodd" d="M.743.333h74.235v113.193H.743V.333z"/></svg></svg><svg width="19" height="18" xmlns="http://www.w3.org/2000/svg" xmlns:xlink="http://www.w3.org/1999/xlink" xmlns:svgjs="http://svgjs.com/svgjs" viewBox="0.5 0 18 18" fill="#e6f3ff" x="353" y="1346"><svg xmlns="http://www.w3.org/2000/svg" xmlns:xlink="http://www.w3.org/1999/xlink" width="19" height="18" viewBox="0.66 0.247 17.555 17.554"><path paint-order="stroke fill markers" fill-rule="evenodd" d="M9.438 17.802A8.77 8.77 0 0 1 .66 9.024 8.77 8.77 0 0 1 9.438.247a8.769 8.769 0 0 1 8.777 8.777 8.77 8.77 0 0 1-8.777 8.778z"/></svg></svg><svg width="26" height="4" xmlns="http://www.w3.org/2000/svg" xmlns:xlink="http://www.w3.org/1999/xlink" xmlns:svgjs="http://svgjs.com/svgjs" viewBox="0 0.103 26 3.794" fill="#e6f3ff" x="354" y="1215"><svg xmlns="http://www.w3.org/2000/svg" xmlns:xlink="http://www.w3.org/1999/xlink" width="26" height="4" viewBox="0.58 0.286 25.145 3.67"><path paint-order="stroke fill markers" fill-rule="evenodd" d="M.58.286h25.145v3.67H.58V.286z"/></svg></svg><svg width="9" height="9" xmlns="http://www.w3.org/2000/svg" xmlns:xlink="http://www.w3.org/1999/xlink" xmlns:svgjs="http://svgjs.com/svgjs" fill="#e6f3ff" x="341" y="1213"><svg xmlns="http://www.w3.org/2000/svg" xmlns:xlink="http://www.w3.org/1999/xlink" width="9" height="9" viewBox="0.379 0.424 8.188 8.188"><path paint-order="stroke fill markers" fill-rule="evenodd" d="M4.473 8.612A4.09 4.09 0 0 1 .379 4.518 4.09 4.09 0 0 1 4.473.424a4.09 4.09 0 0 1 4.094 4.094 4.09 4.09 0 0 1-4.094 4.094z"/></svg></svg><svg width="91" height="24" xmlns="http://www.w3.org/2000/svg" xmlns:xlink="http://www.w3.org/1999/xlink" xmlns:svgjs="http://svgjs.com/svgjs" viewBox="0 0.505 91 22.99" fill="#2361b5" opacity=".149" x="317" y="1242"><svg xmlns="http://www.w3.org/2000/svg" xmlns:xlink="http://www.w3.org/1999/xlink" width="91" height="24" viewBox="0.522 0.459 89.487 22.608"><path paint-order="stroke fill markers" fill-rule="evenodd" d="M.522 14.43v7.324s4.888 2.357 11.747-.566c6.86-2.923 10.216 3.27 18.813 0 8.596-3.269 11 3.874 20.47 1.312 9.468-2.561 12.47-3.496 17.61-.691 5.138 2.805 16.5.48 20.846-2.876v-9.43L77.436.46H11.24L.522 14.43z"/></svg></svg><svg width="103" height="21" xmlns="http://www.w3.org/2000/svg" xmlns:xlink="http://www.w3.org/1999/xlink" xmlns:svgjs="http://svgjs.com/svgjs" viewBox="0 0.198 103 20.605" fill="#00de9a" x="311" y="1227"><svg xmlns="http://www.w3.org/2000/svg" xmlns:xlink="http://www.w3.org/1999/xlink" width="103" height="21" viewBox="0 0.333 102.877 20.58"><path paint-order="stroke fill markers" fill-rule="evenodd" d="M13.798.333L0 20.913h102.876L88.15.333H13.798z"/></svg></svg><svg width="15" height="10" xmlns="http://www.w3.org/2000/svg" xmlns:xlink="http://www.w3.org/1999/xlink" xmlns:svgjs="http://svgjs.com/svgjs" viewBox="0 0.825 15 8.35" fill="#00de9a" x="311" y="1247"><svg xmlns="http://www.w3.org/2000/svg" xmlns:xlink="http://www.w3.org/1999/xlink" width="15" height="10" viewBox="0 0.913 14.694 8.18"><path paint-order="stroke fill markers" fill-rule="evenodd" d="M7.347 9.092c4.063 0 7.347-3.661 7.347-8.18H0c0 4.519 3.292 8.18 7.347 8.18z"/></svg></svg><svg width="16" height="10" xmlns="http://www.w3.org/2000/svg" xmlns:xlink="http://www.w3.org/1999/xlink" xmlns:svgjs="http://svgjs.com/svgjs" viewBox="0 0.554 16 8.892" fill="#fafafa" x="325" y="1247"><svg xmlns="http://www.w3.org/2000/svg" xmlns:xlink="http://www.w3.org/1999/xlink" width="16" height="10" viewBox="0.679 0.913 14.718 8.18"><path paint-order="stroke fill markers" fill-rule="evenodd" d="M8.05 9.092c4.054 0 7.347-3.661 7.347-8.18H.679c0 4.519 3.308 8.18 7.37 8.18z"/></svg></svg><svg width="16" height="10" xmlns="http://www.w3.org/2000/svg" xmlns:xlink="http://www.w3.org/1999/xlink" xmlns:svgjs="http://svgjs.com/svgjs" viewBox="0 0.547 16 8.907" fill="#00de9a" x="340" y="1247"><svg xmlns="http://www.w3.org/2000/svg" xmlns:xlink="http://www.w3.org/1999/xlink" width="16" height="10" viewBox="0.397 0.913 14.694 8.18"><path paint-order="stroke fill markers" fill-rule="evenodd" d="M7.744 9.092c4.054 0 7.347-3.661 7.347-8.18H.397c0 4.519 3.284 8.18 7.347 8.18z"/></svg></svg><svg width="15" height="10" xmlns="http://www.w3.org/2000/svg" xmlns:xlink="http://www.w3.org/1999/xlink" xmlns:svgjs="http://svgjs.com/svgjs" viewBox="0 0.825 15 8.35" fill="#fafafa" x="355" y="1247"><svg xmlns="http://www.w3.org/2000/svg" xmlns:xlink="http://www.w3.org/1999/xlink" width="15" height="10" viewBox="0.091 0.913 14.694 8.18"><path paint-order="stroke fill markers" fill-rule="evenodd" d="M7.438 9.092c4.063 0 7.347-3.661 7.347-8.18H.091c0 4.519 3.292 8.18 7.347 8.18z"/></svg></svg><svg width="16" height="10" xmlns="http://www.w3.org/2000/svg" xmlns:xlink="http://www.w3.org/1999/xlink" xmlns:svgjs="http://svgjs.com/svgjs" viewBox="0 0.549 16 8.902" fill="#00de9a" x="369" y="1247"><svg xmlns="http://www.w3.org/2000/svg" xmlns:xlink="http://www.w3.org/1999/xlink" width="16" height="10" viewBox="0.785 0.913 14.702 8.18"><path paint-order="stroke fill markers" fill-rule="evenodd" d="M8.14 9.092c4.055 0 7.348-3.661 7.348-8.18H.785c0 4.519 3.293 8.18 7.355 8.18z"/></svg></svg><svg width="16" height="10" xmlns="http://www.w3.org/2000/svg" xmlns:xlink="http://www.w3.org/1999/xlink" xmlns:svgjs="http://svgjs.com/svgjs" viewBox="0 0.547 16 8.906" fill="#fafafa" x="384" y="1247"><svg xmlns="http://www.w3.org/2000/svg" xmlns:xlink="http://www.w3.org/1999/xlink" width="16" height="10" viewBox="0.487 0.913 14.695 8.18"><path paint-order="stroke fill markers" fill-rule="evenodd" d="M7.835 9.092c4.054 0 7.347-3.661 7.347-8.18H.487c0 4.519 3.27 8.18 7.348 8.18z"/></svg></svg><svg width="15" height="10" xmlns="http://www.w3.org/2000/svg" xmlns:xlink="http://www.w3.org/1999/xlink" xmlns:svgjs="http://svgjs.com/svgjs" viewBox="0 0.825 15 8.35" fill="#00de9a" x="399" y="1247"><svg xmlns="http://www.w3.org/2000/svg" xmlns:xlink="http://www.w3.org/1999/xlink" width="15" height="10" viewBox="0.182 0.913 14.694 8.18"><path paint-order="stroke fill markers" fill-rule="evenodd" d="M7.53 9.092c4.062 0 7.346-3.661 7.346-8.18H.182c0 4.519 3.292 8.18 7.347 8.18z"/></svg></svg><svg width="19" height="21" xmlns="http://www.w3.org/2000/svg" xmlns:xlink="http://www.w3.org/1999/xlink" xmlns:svgjs="http://svgjs.com/svgjs" viewBox="0.375 0 18.25 21" fill="#fafafa" x="325" y="1227"><svg xmlns="http://www.w3.org/2000/svg" xmlns:xlink="http://www.w3.org/1999/xlink" width="19" height="21" viewBox="0.694 0.333 17.885 20.58"><path paint-order="stroke fill markers" fill-rule="evenodd" d="M.694 20.913L8.992.333h9.587l-3.182 20.58H.694z"/></svg></svg><svg width="19" height="21" xmlns="http://www.w3.org/2000/svg" xmlns:xlink="http://www.w3.org/1999/xlink" xmlns:svgjs="http://svgjs.com/svgjs" viewBox="0.379 0 18.242 21" fill="#fafafa" x="381" y="1227"><svg xmlns="http://www.w3.org/2000/svg" xmlns:xlink="http://www.w3.org/1999/xlink" width="19" height="21" viewBox="0.281 0.333 17.877 20.58"><path paint-order="stroke fill markers" fill-rule="evenodd" d="M18.158 20.913L9.868.333H.281l3.183 20.58h14.694z"/></svg></svg><svg width="15" height="21" xmlns="http://www.w3.org/2000/svg" xmlns:xlink="http://www.w3.org/1999/xlink" xmlns:svgjs="http://svgjs.com/svgjs" viewBox="0.003 0 14.994 21" fill="#fafafa" x="355" y="1227"><svg xmlns="http://www.w3.org/2000/svg" width="15" height="21" viewBox="0.091 0.333 14.694 20.58"><path paint-order="stroke fill markers" fill-rule="evenodd" d="M.09 20.913L.815.333h13.09l.881 20.58H.091z"/></svg></svg></svg>