<svg width="260" height="52" xmlns="http://www.w3.org/2000/svg" xmlns:xlink="http://www.w3.org/1999/xlink" xmlns:svgjs="http://svgjs.com/svgjs" viewBox="139 3596 260 52"><svg width="260" height="52" xmlns="http://www.w3.org/2000/svg" xmlns:xlink="http://www.w3.org/1999/xlink" xmlns:svgjs="http://svgjs.com/svgjs" fill="#2361b5" x="139" y="3596"><svg xmlns="http://www.w3.org/2000/svg" xmlns:xlink="http://www.w3.org/1999/xlink" width="260" height="52"><path paint-order="stroke fill markers" fill-rule="evenodd" d="M10 0h240c5.53 0 10 4.47 10 10v32c0 5.53-4.47 10-10 10H10C4.47 52 0 47.53 0 42V10C0 4.47 4.47 0 10 0z"/></svg></svg><svg width="25" height="27" xmlns="http://www.w3.org/2000/svg" xmlns:xlink="http://www.w3.org/1999/xlink" xmlns:svgjs="http://svgjs.com/svgjs" viewBox="0.136 0 24.729 27" fill="#fff" x="355" y="3609"><svg xmlns="http://www.w3.org/2000/svg" width="25" height="27" viewBox="0.093 0 24 26.204"><path paint-order="stroke fill markers" fill-rule="evenodd" d="M21.564 10.832h-.065v-1.59a9.243 9.243 0 1 0-18.486 0v1.59h-.39c-1.426 0-2.529 1.265-2.529 2.724v4.054a2.562 2.562 0 0 0 2.496 2.626l.034.001h2.4a.617.617 0 0 0 .583-.681V11.61c0-.39-.227-.778-.584-.778H4.31v-1.59a7.946 7.946 0 0 1 15.891 0v1.59h-.713c-.357 0-.584.389-.584.778v7.946a.616.616 0 0 0 .584.68h.746l-.065.098a5.124 5.124 0 0 1-4.119 2.043 3.21 3.21 0 0 0-6.356.616 3.243 3.243 0 0 0 3.243 3.211 3.342 3.342 0 0 0 2.335-1.005c.415-.425.687-.97.778-1.557a6.421 6.421 0 0 0 5.157-2.562l.616-.908c1.394-.097 2.27-.973 2.27-2.238V13.88c0-1.394-1.037-3.048-2.53-3.048zM4.31 18.94H2.624a1.264 1.264 0 0 1-1.234-1.296l.001-.034v-4.054c0-.746.52-1.427 1.233-1.427H4.31v6.81zm10.021 5.35c-.36.39-.864.614-1.394.617a1.978 1.978 0 0 1-1.946-1.913 1.914 1.914 0 1 1 3.827-.002v.002c.027.481-.15.952-.487 1.297zm8.465-6.356c0 .876-.843 1.006-1.232 1.006H20.2v-6.81h1.363c.713 0 1.232 1.005 1.232 1.75v4.054z"/></svg></svg></svg>