<svg width="81" height="80" xmlns="http://www.w3.org/2000/svg" xmlns:xlink="http://www.w3.org/1999/xlink" xmlns:svgjs="http://svgjs.com/svgjs" viewBox="702 1083 81 80"><svg width="81" height="80" xmlns="http://www.w3.org/2000/svg" xmlns:xlink="http://www.w3.org/1999/xlink" xmlns:svgjs="http://svgjs.com/svgjs" viewBox="0.5 0 80 80" fill="#fff" x="702" y="1083"><svg xmlns="http://www.w3.org/2000/svg" xmlns:xlink="http://www.w3.org/1999/xlink" width="81" height="80" viewBox="0.5 0 80 80"><path paint-order="stroke fill markers" fill-rule="evenodd" d="M20.5 0h40c11.06 0 20 8.94 20 20v40c0 11.06-8.94 20-20 20h-40C9.44 80 .5 71.06.5 60V20c0-11.06 8.94-20 20-20z"/></svg></svg><svg width="34" height="34" xmlns="http://www.w3.org/2000/svg" xmlns:xlink="http://www.w3.org/1999/xlink" xmlns:svgjs="http://svgjs.com/svgjs" fill="#1894ff" x="726" y="1106"><svg xmlns="http://www.w3.org/2000/svg" xmlns:xlink="http://www.w3.org/1999/xlink" width="34" height="34" viewBox="0.5 0.999 32.999 33"><path paint-order="stroke fill markers" fill-rule="evenodd" d="M17 34c-1.919 0-3.682-1.14-5.392-3.484-.711.112-1.383.168-1.994.168-1.86 0-3.26-.496-4.28-1.517-1.358-1.357-1.8-3.41-1.35-6.276C1.64 21.182.5 19.418.5 17.5c0-1.919 1.14-3.682 3.483-5.392-.448-2.864-.007-4.917 1.35-6.274C6.34 4.826 7.781 4.315 9.617 4.315c.612 0 1.282.056 1.991.168C13.318 2.139 15.082.999 17 .999c1.919 0 3.683 1.14 5.392 3.484.71-.112 1.381-.168 1.992-.168 1.836 0 3.277.51 4.284 1.518 1.357 1.356 1.798 3.409 1.349 6.274 2.343 1.71 3.483 3.474 3.483 5.392 0 1.92-1.14 3.683-3.483 5.392.449 2.867.008 4.92-1.349 6.276-1.006 1.007-2.447 1.517-4.282 1.517-.613 0-1.284-.057-1.994-.168C20.682 32.86 18.919 34 17 34zm-4.707-6.637c.511 0 .982.256 1.26.685C14.802 29.978 15.993 31 17 31c1.006 0 2.198-1.02 3.448-2.95a1.497 1.497 0 0 1 1.574-.653c.898.192 1.694.29 2.365.29 1.007 0 1.734-.216 2.159-.64.71-.712.832-2.276.35-4.525a1.512 1.512 0 0 1 .653-1.574c1.93-1.25 2.951-2.442 2.951-3.448 0-1.005-1.02-2.197-2.951-3.448a1.508 1.508 0 0 1-.652-1.572c.482-2.25.36-3.814-.351-4.526-.425-.425-1.152-.64-2.159-.64-.671 0-1.467.097-2.365.29a1.497 1.497 0 0 1-1.574-.653C19.198 5.02 18.006 4 17 4c-1.006 0-2.198 1.02-3.448 2.95a1.49 1.49 0 0 1-1.572.652c-.899-.192-1.695-.29-2.366-.29-1.008 0-1.735.216-2.16.641-.71.712-.832 2.277-.35 4.526a1.503 1.503 0 0 1-.653 1.572C4.521 15.301 3.5 16.494 3.5 17.5c0 1.006 1.02 2.198 2.951 3.448.52.337.782.97.652 1.574-.481 2.25-.36 3.813.351 4.524.425.425 1.152.641 2.16.641.671 0 1.467-.098 2.366-.29.102-.022.208-.033.313-.033z"/></svg></svg><svg width="16" height="12" xmlns="http://www.w3.org/2000/svg" xmlns:xlink="http://www.w3.org/1999/xlink" xmlns:svgjs="http://svgjs.com/svgjs" viewBox="0.068 0 15.863 12" fill="#00de9a" x="735" y="1117"><svg xmlns="http://www.w3.org/2000/svg" width="16" height="12" viewBox="0.94 0.939 14.121 10.682"><path paint-order="stroke fill markers" fill-rule="evenodd" d="M6.5 7.379l6.44-6.44 2.121 2.122-8.56 8.56L.94 6.061 3.06 3.938l3.44 3.44z"/></svg></svg></svg>