<svg width="160" height="160" xmlns="http://www.w3.org/2000/svg" xmlns:xlink="http://www.w3.org/1999/xlink" xmlns:svgjs="http://svgjs.com/svgjs" viewBox="1067 1748 160 160"><svg width="160" height="160" xmlns="http://www.w3.org/2000/svg" xmlns:xlink="http://www.w3.org/1999/xlink" xmlns:svgjs="http://svgjs.com/svgjs" viewBox="1067 1748 160 160" x="1067" y="1748"><svg width="160" height="160" xmlns="http://www.w3.org/2000/svg" xmlns:xlink="http://www.w3.org/1999/xlink" xmlns:svgjs="http://svgjs.com/svgjs" fill="#fff" x="1067" y="1748"><svg xmlns="http://www.w3.org/2000/svg" xmlns:xlink="http://www.w3.org/1999/xlink" width="160" height="160"><path paint-order="stroke fill markers" fill-rule="evenodd" d="M25 0h110c13.825 0 25 11.175 25 25v110c0 13.825-11.175 25-25 25H25c-13.825 0-25-11.175-25-25V25C0 11.175 11.175 0 25 0z"/></svg></svg></svg><svg width="58" height="71" xmlns="http://www.w3.org/2000/svg" xmlns:xlink="http://www.w3.org/1999/xlink" xmlns:svgjs="http://svgjs.com/svgjs" viewBox="1118 1773 58 71" x="1118" y="1773"><svg width="12" height="19" xmlns="http://www.w3.org/2000/svg" xmlns:xlink="http://www.w3.org/1999/xlink" xmlns:svgjs="http://svgjs.com/svgjs" viewBox="0.685 0 10.63 19" fill="#00de9a" x="1138" y="1773"><svg xmlns="http://www.w3.org/2000/svg" xmlns:xlink="http://www.w3.org/1999/xlink" width="12" height="19" viewBox="0.985 0 10.248 18.316"><path paint-order="stroke fill markers" fill-rule="evenodd" d="M11.233 0H.985v6.105h4.143v12.21h6.105V0z"/></svg></svg><svg width="11" height="19" xmlns="http://www.w3.org/2000/svg" xmlns:xlink="http://www.w3.org/1999/xlink" xmlns:svgjs="http://svgjs.com/svgjs" viewBox="0.185 0 10.63 19" fill="#00de9a" x="1120" y="1773"><svg xmlns="http://www.w3.org/2000/svg" xmlns:xlink="http://www.w3.org/1999/xlink" width="11" height="19" viewBox="0.526 0 10.248 18.316"><path paint-order="stroke fill markers" fill-rule="evenodd" d="M6.631 6.105h4.143V0H.526v18.315h6.105V6.105z"/></svg></svg><svg width="39" height="53" xmlns="http://www.w3.org/2000/svg" xmlns:xlink="http://www.w3.org/1999/xlink" xmlns:svgjs="http://svgjs.com/svgjs" viewBox="0.482 0 38.035 53" fill="#2361b5" x="1131" y="1791"><svg xmlns="http://www.w3.org/2000/svg" xmlns:xlink="http://www.w3.org/1999/xlink" width="39" height="53" viewBox="0.827 0.315 37.242 51.895"><path paint-order="stroke fill markers" fill-rule="evenodd" d="M31.964 9.1V33.59c0 6.901-5.615 12.516-12.516 12.516S6.933 40.49 6.933 33.589v-6.802c7.3-1.428 12.826-7.873 12.826-15.584V.315h-9.157v10.888a6.73 6.73 0 0 1-6.722 6.722v9.158c-1.044 0-2.064-.103-3.053-.296v6.802c0 10.268 8.353 18.621 18.621 18.621 10.268 0 18.621-8.353 18.621-18.621V9.1a9.116 9.116 0 0 1-6.105 0z"/></svg></svg><svg width="11" height="19" xmlns="http://www.w3.org/2000/svg" xmlns:xlink="http://www.w3.org/1999/xlink" xmlns:svgjs="http://svgjs.com/svgjs" viewBox="0.75 0 9.5 19" fill="#1894ff" x="1156" y="1782"><svg xmlns="http://www.w3.org/2000/svg" xmlns:xlink="http://www.w3.org/1999/xlink" width="11" height="19" viewBox="0.859 0.31 9.158 18.316"><path paint-order="stroke fill markers" fill-rule="evenodd" d="M10.016 12.52a3.056 3.056 0 0 1-3.052-3.052 3.056 3.056 0 0 1 3.052-3.052V.31C4.966.31.86 4.419.86 9.468c0 3.98 2.552 7.373 6.105 8.633a9.114 9.114 0 0 0 3.052.525V12.52z"/></svg></svg><svg width="10" height="19" xmlns="http://www.w3.org/2000/svg" xmlns:xlink="http://www.w3.org/1999/xlink" xmlns:svgjs="http://svgjs.com/svgjs" viewBox="0.25 0 9.5 19" fill="#2361b5" x="1166" y="1782"><svg xmlns="http://www.w3.org/2000/svg" xmlns:xlink="http://www.w3.org/1999/xlink" width="10" height="19" viewBox="0.016 0.31 9.158 18.316"><path paint-order="stroke fill markers" fill-rule="evenodd" d="M9.174 9.468C9.174 4.418 5.066.31.016.31v6.106A3.056 3.056 0 0 1 3.07 9.468 3.056 3.056 0 0 1 .016 12.52v6.105c1.07 0 2.098-.186 3.053-.525 3.553-1.26 6.105-4.653 6.105-8.633z"/></svg></svg><svg width="8" height="7" xmlns="http://www.w3.org/2000/svg" xmlns:xlink="http://www.w3.org/1999/xlink" xmlns:svgjs="http://svgjs.com/svgjs" viewBox="0.5 0 7 7" fill="#fff" x="1162" y="1788"><svg xmlns="http://www.w3.org/2000/svg" xmlns:xlink="http://www.w3.org/1999/xlink" width="8" height="7" viewBox="0.964 0.416 6.105 6.105"><path paint-order="stroke fill markers" fill-rule="evenodd" d="M.964 3.468A3.056 3.056 0 0 0 4.017 6.52a3.056 3.056 0 0 0 3.052-3.053A3.056 3.056 0 0 0 4.017.416 3.056 3.056 0 0 0 .964 3.468z"/></svg></svg><svg width="17" height="28" xmlns="http://www.w3.org/2000/svg" xmlns:xlink="http://www.w3.org/1999/xlink" xmlns:svgjs="http://svgjs.com/svgjs" viewBox="0.195 0 16.611 28" fill="#1894ff" x="1118" y="1791"><svg xmlns="http://www.w3.org/2000/svg" width="17" height="28" viewBox="1 0.315 15.88 26.767"><path paint-order="stroke fill markers" fill-rule="evenodd" d="M16.88 17.925a6.73 6.73 0 0 1-6.722-6.722V.315H1v10.888c0 7.71 5.526 14.157 12.827 15.584.989.193 2.009.296 3.053.296v-9.158z"/></svg></svg></svg></svg>